<svg xmlns="http://www.w3.org/2000/svg" width="60" height="16" viewBox="0 0 60 16" fill="none" role="img" aria-label="Deluge">
  <g transform="translate(0,0)">
    <svg x="0" y="0" width="8.657" height="15.994" viewBox="0 0 8.65672 15.9938">
<path id="Vector" d="M8.11805 14.9325H5.19023C3.80236 14.9325 2.67433 13.8213 2.67433 12.4542V9.57004C2.67433 8.94577 2.39549 8.38393 1.95822 7.99688C2.40183 7.60983 2.687 7.04799 2.687 6.41748V3.5396C2.687 2.17245 3.81504 1.06126 5.2029 1.06126H8.11171C8.40956 1.06126 8.65038 0.824034 8.65038 0.530628C8.65038 0.237222 8.40956 0 8.11171 0H5.19656C3.213 0 1.60333 1.58564 1.60333 3.5396V6.42372C1.60333 6.99805 1.12803 7.46625 0.545006 7.46625H0.538668C0.240816 7.46625 0 7.70347 0 7.99688C0 8.29029 0.240816 8.52751 0.538668 8.52751C1.1217 8.52751 1.59699 8.99571 1.59699 9.57004V12.4542C1.59699 14.4081 3.20666 15.9938 5.19023 15.9938H8.11805C8.4159 15.9938 8.65672 15.7565 8.65672 15.4631C8.65672 15.1697 8.4159 14.9325 8.11805 14.9325Z" fill="#226DB4"/>
</svg>
    <svg x="9.72" y="0" width="8.651" height="16" viewBox="0 0 8.65088 16">
<path id="Vector" d="M8.11805 7.46625C7.53502 7.46625 7.05973 6.99805 7.05973 6.42372V3.5396C7.05973 1.58564 5.45006 0 3.46649 0H0.538668C0.240816 0 0 0.237222 0 0.530628C0 0.824034 0.240816 1.06126 0.538668 1.06126H3.46649C4.85435 1.06126 5.98239 2.17245 5.98239 3.5396V6.42372C5.98239 7.04799 6.26123 7.60983 6.6985 7.99688C6.25489 8.38392 5.96971 8.94577 5.96971 9.57628V12.4604C5.96971 13.8275 4.84168 14.9387 3.45382 14.9387H0.538668C0.240816 14.9387 0 15.176 0 15.4694C0 15.7628 0.240816 16 0.538668 16H3.45382C5.43738 16 7.04705 14.4144 7.04705 12.4604V9.57628C7.04705 9.00195 7.52235 8.53375 8.10538 8.53375H8.11171C8.40957 8.53375 8.65038 8.29653 8.65038 8.00312C8.65672 7.70347 8.4159 7.46625 8.11805 7.46625Z" fill="#226DB4"/>
</svg>
  </g>
  <svg x="23.25" y="3" width="36.751" height="11.428" viewBox="0 0 36.7509 11.4281">
<g id="Group">
<path id="Vector" d="M0 0.863281H2.68294C3.33462 0.863281 3.91696 0.950301 4.42998 1.12434C4.94299 1.29838 5.38669 1.5667 5.74718 1.91478C6.10768 2.26286 6.38499 2.70521 6.5791 3.22734C6.77322 3.74946 6.87028 4.3586 6.87028 5.04751C6.87028 5.72918 6.77322 6.32381 6.57217 6.83869C6.37112 7.35356 6.08689 7.78866 5.72639 8.13674C5.36589 8.48482 4.9222 8.74588 4.40225 8.92718C3.8823 9.10847 3.31382 9.18824 2.68294 9.18824H0.0138662L0 0.863281ZM2.63442 7.93369C3.0989 7.93369 3.49407 7.86843 3.82684 7.73065C4.1596 7.59286 4.42998 7.39707 4.63796 7.14326C4.84594 6.88945 5.00539 6.57763 5.10938 6.21504C5.21337 5.85245 5.2619 5.43911 5.2619 4.98225C5.2619 4.03953 5.05392 3.32886 4.63102 2.843C4.20813 2.35713 3.53566 2.11783 2.62055 2.11783H1.55292V7.93369H2.63442Z" fill="#383C4D"/>
<path id="Vector_2" d="M13.2353 7.867C13.1174 8.13531 12.9649 8.36011 12.7777 8.54866C12.5906 8.72995 12.3826 8.88223 12.1538 8.99101C11.925 9.09979 11.6824 9.18681 11.4259 9.23032C11.1694 9.28108 10.9059 9.30283 10.6355 9.30283C10.178 9.30283 9.76202 9.22307 9.38766 9.07078C9.01329 8.91849 8.70132 8.70094 8.44481 8.42538C8.1883 8.14981 7.98726 7.80898 7.84861 7.41739C7.70995 7.0258 7.64062 6.5907 7.64062 6.11934C7.64062 5.66973 7.70995 5.25638 7.85554 4.87204C8.00112 4.4877 8.19524 4.15412 8.45175 3.87131C8.70826 3.58849 9.02023 3.36369 9.37379 3.20415C9.73429 3.04461 10.1295 2.96484 10.5731 2.96484C11.516 2.96484 12.2162 3.25491 12.6807 3.83505C13.1452 4.41518 13.3739 5.29264 13.3739 6.46742H9.06182C9.06182 6.72848 9.09649 6.96053 9.16581 7.18534C9.23514 7.40289 9.33913 7.59143 9.47778 7.75097C9.61644 7.91051 9.78975 8.03379 9.9908 8.12081C10.1918 8.20783 10.4276 8.25134 10.691 8.25134C11.0099 8.25134 11.2941 8.17882 11.5437 8.04104C11.7933 7.90326 11.9943 7.6712 12.1469 7.36663L13.2353 7.867ZM11.9874 5.51019C11.9666 5.04608 11.828 4.6835 11.5853 4.42244C11.3357 4.16137 11.003 4.03084 10.5939 4.03084C10.379 4.03084 10.178 4.0671 10.0047 4.14687C9.83135 4.22664 9.67883 4.32816 9.55404 4.45869C9.42925 4.58923 9.32526 4.74876 9.249 4.93006C9.17274 5.11135 9.11728 5.30714 9.08262 5.51744L11.9874 5.51019Z" fill="#383C4D"/>
<path id="Vector_3" d="M14.5312 0.630899L15.9247 0V9.19516H14.5312V0.630899Z" fill="#383C4D"/>
<path id="Vector_4" d="M21.401 8.23716C21.3109 8.42571 21.2 8.58525 21.0613 8.71578C20.9227 8.84631 20.7702 8.96233 20.6107 9.04935C20.4443 9.13637 20.2641 9.20164 20.0769 9.24515C19.8828 9.28866 19.6887 9.31041 19.4876 9.31041C19.1548 9.31041 18.8567 9.2524 18.6002 9.14363C18.3437 9.03485 18.1288 8.87531 17.9555 8.67227C17.7822 8.46922 17.6505 8.22991 17.5673 7.94709C17.4771 7.66428 17.4355 7.35245 17.4355 7.00437V3.10295H18.829V6.82308C18.829 7.24368 18.9261 7.57001 19.1133 7.80931C19.3004 8.04862 19.5985 8.16465 20.0076 8.16465C20.2225 8.16465 20.4235 8.12839 20.5899 8.06312C20.7632 7.99061 20.9088 7.89633 21.0336 7.7658C21.1584 7.63527 21.2485 7.48299 21.3109 7.30169C21.3733 7.1204 21.408 6.9246 21.408 6.70705V3.0957H22.7945V9.18714H21.408L21.401 8.23716Z" fill="#383C4D"/>
<path id="Vector_5" d="M25.2142 9.46293C25.2835 9.63697 25.3806 9.77476 25.4984 9.89078C25.6163 9.99956 25.7411 10.0938 25.8867 10.1591C26.0322 10.2244 26.1778 10.2751 26.3373 10.3041C26.4967 10.3331 26.6562 10.3476 26.8226 10.3476C27.3425 10.3476 27.7446 10.2171 28.0427 9.9488C28.3339 9.68774 28.4864 9.27439 28.4864 8.72326V7.80954C28.3893 7.98359 28.2646 8.14312 28.1259 8.28816C27.9803 8.43319 27.8278 8.54922 27.6545 8.65074C27.4812 8.75227 27.3009 8.82478 27.1137 8.87554C26.9266 8.92631 26.7324 8.95531 26.5314 8.95531C26.1154 8.95531 25.748 8.87555 25.4291 8.71601C25.1033 8.55647 24.8329 8.34617 24.611 8.07786C24.3892 7.80954 24.2159 7.49772 24.105 7.14239C23.9871 6.78705 23.9316 6.40997 23.9316 6.01112C23.9316 5.60503 23.994 5.21343 24.1188 4.8436C24.2436 4.47376 24.4169 4.15468 24.6457 3.87912C24.8745 3.60355 25.1518 3.37875 25.4776 3.21921C25.8035 3.05968 26.1709 2.97266 26.573 2.97266C26.9681 2.97266 27.3356 3.05968 27.6753 3.22647C28.015 3.39326 28.2854 3.66882 28.4933 4.03141V3.09594H29.8937V8.73776C29.8937 9.21637 29.8105 9.62247 29.6511 9.97055C29.4916 10.3114 29.2698 10.5869 28.9925 10.8045C28.7152 11.022 28.3893 11.1816 28.0219 11.2759C27.6476 11.3774 27.2524 11.4281 26.8295 11.4281C26.5591 11.4281 26.2887 11.4064 26.0114 11.3629C25.7411 11.3194 25.4846 11.2396 25.2419 11.1236C24.9993 11.0148 24.7844 10.8625 24.5833 10.674C24.3892 10.4854 24.2297 10.2461 24.1119 9.95605L25.2142 9.46293ZM26.8919 7.8313C27.1623 7.8313 27.4049 7.78054 27.606 7.68626C27.807 7.59199 27.9803 7.45421 28.119 7.28017C28.2576 7.10613 28.3616 6.91033 28.4309 6.67828C28.5003 6.44622 28.5349 6.19967 28.5349 5.93135C28.5349 5.67029 28.5003 5.42373 28.4309 5.20618C28.3616 4.98138 28.2646 4.78558 28.1328 4.62605C28.0011 4.45926 27.8347 4.32873 27.6337 4.2417C27.4326 4.14743 27.2039 4.10392 26.9404 4.10392C26.6631 4.10392 26.4205 4.15468 26.2194 4.26346C26.0184 4.37224 25.8589 4.51002 25.7272 4.68406C25.5955 4.8581 25.5054 5.0684 25.443 5.30045C25.3806 5.53251 25.3528 5.78632 25.3528 6.05463C25.3528 6.29394 25.3875 6.51874 25.4568 6.73629C25.5262 6.95384 25.6232 7.14239 25.7619 7.30918C25.8936 7.47597 26.053 7.6065 26.2472 7.70077C26.4343 7.78054 26.6492 7.8313 26.8919 7.8313Z" fill="#383C4D"/>
<path id="Vector_6" d="M36.6122 7.867C36.4944 8.13531 36.3419 8.36011 36.1547 8.54866C35.9675 8.72995 35.7595 8.88223 35.5307 8.99101C35.302 9.09979 35.0593 9.18681 34.8028 9.23032C34.5463 9.28108 34.2829 9.30283 34.0125 9.30283C33.5549 9.30283 33.139 9.22307 32.7646 9.07078C32.3972 8.91849 32.0783 8.70094 31.8218 8.42538C31.5653 8.14981 31.3642 7.80898 31.2256 7.41739C31.0869 7.0258 31.0176 6.5907 31.0176 6.11934C31.0176 5.66973 31.0869 5.25638 31.2325 4.87204C31.3781 4.4877 31.5722 4.15412 31.8287 3.87131C32.0852 3.58849 32.3972 3.36369 32.7507 3.20415C33.1112 3.04461 33.5064 2.96484 33.9501 2.96484C34.8929 2.96484 35.5931 3.25491 36.0576 3.83505C36.5221 4.41518 36.7509 5.29264 36.7509 6.46742H32.4388C32.4388 6.72848 32.4734 6.96053 32.5428 7.18534C32.6121 7.40289 32.7161 7.59143 32.8547 7.75097C32.9934 7.91051 33.1667 8.03379 33.3678 8.12081C33.5688 8.20783 33.8045 8.25134 34.068 8.25134C34.3869 8.25134 34.6711 8.17882 34.9207 8.04104C35.1702 7.90326 35.3713 7.6712 35.5238 7.36663L36.6122 7.867ZM35.3644 5.51019C35.3436 5.04608 35.2049 4.6835 34.9623 4.42244C34.7127 4.16137 34.3799 4.03084 33.9709 4.03084C33.756 4.03084 33.5549 4.0671 33.3816 4.14687C33.2083 4.22664 33.0558 4.32816 32.931 4.45869C32.8062 4.58923 32.7022 4.74876 32.626 4.93006C32.5428 5.11135 32.4942 5.30714 32.4665 5.51744L35.3644 5.51019Z" fill="#383C4D"/>
</g>
</svg>
</svg>
