<svg width="20" height="20" viewBox="0 0 20 20" fill="none" xmlns="http://www.w3.org/2000/svg">
<rect width="20" height="20" fill="white"/>
<path d="M16 14.667C15.9999 14.5189 15.962 14.374 15.8906 14.2471L15.8897 14.2451L10.6934 4.91895L10.6924 4.91699C10.6213 4.78838 10.519 4.68301 10.3975 4.61035C10.2759 4.53773 10.1388 4.5 10 4.5C9.86118 4.5 9.72407 4.53772 9.60254 4.61035C9.48097 4.68301 9.37873 4.78837 9.30762 4.91699L9.30664 4.91895L4.11133 14.2451L4.10938 14.2471C4.03761 14.3747 3.99968 14.5209 4 14.6699C4.00039 14.8189 4.03899 14.9646 4.11133 15.0918C4.18373 15.2191 4.28726 15.3225 4.40918 15.3936C4.53089 15.4645 4.66744 15.5012 4.80567 15.5H15.2022L15.3047 15.4932C15.4067 15.4793 15.5061 15.4443 15.5967 15.3906C15.7174 15.3189 15.8193 15.2148 15.8906 15.0879C15.962 14.9608 16 14.8153 16 14.667ZM10.0127 12.835C10.2887 12.835 10.5125 13.059 10.5127 13.335C10.5127 13.6111 10.2888 13.835 10.0127 13.835H10.0068C9.7307 13.835 9.50684 13.6111 9.50684 13.335C9.50706 13.059 9.73083 12.835 10.0068 12.835H10.0127ZM9.50684 10.6709V8.00586C9.50701 7.72986 9.7308 7.50586 10.0068 7.50586C10.2828 7.50601 10.5067 7.72995 10.5068 8.00586V10.6709C10.5068 10.9469 10.2828 11.1707 10.0068 11.1709C9.73074 11.1709 9.50691 10.947 9.50684 10.6709ZM17 14.667C17.0001 14.9861 16.9179 15.3003 16.7617 15.5781C16.6055 15.856 16.3801 16.0886 16.1065 16.251C15.8327 16.4134 15.5211 16.4996 15.2031 16.5H4.81055V16.499C4.49253 16.5011 4.18029 16.4181 3.90528 16.2578C3.62902 16.0968 3.40057 15.8644 3.24219 15.5859C3.08397 15.3076 3.00072 14.9923 3 14.6719C2.99931 14.3513 3.08116 14.035 3.23829 13.7559L8.4336 4.43164C8.58903 4.15118 8.81509 3.91616 9.08985 3.75195C9.36532 3.58738 9.67937 3.5 10 3.5C10.3206 3.5 10.6347 3.58738 10.9102 3.75195C11.1849 3.91616 11.411 4.15119 11.5664 4.43164L16.7617 13.7559L16.8164 13.8623C16.9368 14.1128 16.9999 14.3879 17 14.667Z" fill="#383C4D"/>
</svg>
