<svg width="20" height="20" viewBox="0 0 20 20" fill="none" xmlns="http://www.w3.org/2000/svg">
<rect width="20" height="20" fill="white"/>
<path d="M3.29234 14.5171V10.5091C3.28811 10.5005 3.27527 10.4802 3.24087 10.4479C3.17237 10.3836 3.06178 10.3154 2.92194 10.2511C2.78658 10.1888 2.64693 10.1407 2.53867 10.1081C2.48528 10.0921 2.4408 10.0805 2.41091 10.0729L2.37047 10.0627L2.29143 10.0376C2.11504 9.96429 1.99669 9.78835 2.00007 9.5902C2.00395 9.36379 2.16552 9.17142 2.3861 9.13074L2.39345 9.12982C2.40026 9.12844 2.41119 9.12558 2.42562 9.12239C2.4549 9.11591 2.49818 9.10592 2.55062 9.09176C2.65759 9.06286 2.7955 9.01958 2.92837 8.96088C3.06564 8.90024 3.17177 8.83411 3.23719 8.77153C3.26797 8.74208 3.282 8.72075 3.28774 8.70934C3.292 8.70087 3.29234 8.69766 3.29234 8.69542V5.48293C3.29234 4.11169 4.39315 3 5.75096 3H6.14801C6.40791 3 6.6186 3.21277 6.6186 3.47524C6.6186 3.7377 6.40791 3.95047 6.14801 3.95047H5.75096C4.91294 3.95047 4.23351 4.63663 4.23351 5.48293V8.69542C4.23337 9.03294 4.06499 9.28921 3.88425 9.46211C3.82721 9.51664 3.76428 9.56336 3.70134 9.60784C3.76357 9.65174 3.82512 9.69881 3.88149 9.75171C4.05553 9.91509 4.23345 10.1659 4.23351 10.5017V14.5171C4.23352 15.3634 4.91295 16.0495 5.75096 16.0495H6.14801C6.40791 16.0495 6.6186 16.2623 6.6186 16.5248C6.61854 16.7872 6.40787 17 6.14801 17H5.75096C4.39316 17 3.29235 15.8883 3.29234 14.5171ZM15.7665 14.5171V11.3046C15.7666 10.967 15.935 10.7108 16.1158 10.5379C16.1727 10.4835 16.234 10.4347 16.2968 10.3903C16.2353 10.3468 16.1743 10.3006 16.1185 10.2483C15.9445 10.0849 15.7666 9.83411 15.7665 9.49831V5.48293C15.7665 4.63663 15.0871 3.95047 14.249 3.95047H13.852C13.5921 3.95047 13.3814 3.7377 13.3814 3.47524C13.3814 3.21277 13.5921 3 13.852 3H14.249C15.6069 3 16.7077 4.11169 16.7077 5.48293V9.49088C16.7119 9.49959 16.7248 9.51992 16.7591 9.55214C16.8276 9.61644 16.9382 9.68459 17.0781 9.74892C17.2134 9.81117 17.3531 9.85935 17.4613 9.89186C17.5147 9.9079 17.5592 9.91952 17.5891 9.92714L17.6295 9.93735L17.7086 9.96241C17.8849 10.0357 18.0033 10.2117 17.9999 10.4098C17.9965 10.6078 17.8725 10.7798 17.6939 10.847L17.6139 10.8693L17.6065 10.8702C17.5997 10.8716 17.5888 10.8744 17.5744 10.8776C17.5451 10.8841 17.5018 10.8941 17.4494 10.9082C17.3424 10.9371 17.2045 10.9804 17.0716 11.0391C16.9344 11.0998 16.8282 11.1659 16.7628 11.2285C16.7321 11.2579 16.718 11.2793 16.7123 11.2907C16.708 11.2992 16.7077 11.3023 16.7077 11.3046V14.5171L16.6948 14.7705C16.5775 15.9391 15.658 16.8682 14.5009 16.987L14.249 17H13.852C13.5921 17 13.3815 16.7872 13.3814 16.5248C13.3814 16.2623 13.5921 16.0495 13.852 16.0495H14.249L14.4044 16.0412C15.1184 15.9679 15.6865 15.395 15.7591 14.6739L15.7665 14.5171ZM11.5496 7.8916C11.7334 7.70601 12.0313 7.70601 12.2151 7.8916C12.3987 8.0772 12.3988 8.37805 12.2151 8.56361L10.6654 10.1286L12.2151 11.6935L12.2757 11.7678C12.3963 11.9522 12.3759 12.2031 12.2151 12.3655C12.0542 12.5278 11.8058 12.5486 11.6231 12.4268L11.5496 12.3655L10 10.8006L8.45038 12.3655C8.26664 12.5511 7.96873 12.551 7.78495 12.3655C7.60117 12.1799 7.60117 11.8791 7.78495 11.6935L9.33456 10.1286L7.78495 8.56361L7.72428 8.48843C7.60399 8.30404 7.62434 8.05388 7.78495 7.8916C7.94581 7.72914 8.19417 7.70839 8.37685 7.83034L8.45038 7.8916L10 9.45654L11.5496 7.8916Z" fill="#383C4D"/>
</svg>
