<svg width="20" height="20" viewBox="0 0 20 20" fill="none" xmlns="http://www.w3.org/2000/svg">
<rect width="20" height="20" fill="white"/>
<path d="M8.85542 5.63777C9.0554 5.4476 9.37209 5.45548 9.56245 5.65535C9.75263 5.85533 9.74474 6.17202 9.54487 6.36238L6.24995 9.50008H14.9999C15.2761 9.50008 15.4999 9.72394 15.4999 10.0001C15.4999 10.2762 15.2761 10.5001 14.9999 10.5001H6.24995L9.54487 13.6378L9.6103 13.7149C9.74319 13.9057 9.72889 14.1698 9.56245 14.3448C9.39584 14.5197 9.13262 14.5472 8.93549 14.4239L8.85542 14.3624L4.65522 10.3624C4.55613 10.268 4.49995 10.1369 4.49995 10.0001C4.49995 9.86324 4.55613 9.73214 4.65522 9.63777L8.85542 5.63777Z" fill="#3E4054"/>
</svg>
