<svg width="20" height="20" viewBox="0 0 20 20" fill="none" xmlns="http://www.w3.org/2000/svg">
<rect width="20" height="20" fill="white"/>
<path d="M8.58317 17.5C8.72266 17.7537 8.92771 17.9653 9.17691 18.1127C9.42612 18.26 9.71032 18.3378 9.99984 18.3378C10.2894 18.3378 10.5736 18.26 10.8228 18.1127C11.072 17.9653 11.277 17.7537 11.4165 17.5M5 6.66666C5 5.34058 5.52678 4.06881 6.46447 3.13113C7.40215 2.19345 8.67392 1.66666 10 1.66666C11.3261 1.66666 12.5979 2.19345 13.5355 3.13113C14.4732 4.06881 15 5.34058 15 6.66666C15 12.5 17.5 14.1667 17.5 14.1667H2.5C2.5 14.1667 5 12.5 5 6.66666Z" stroke="#383C4D" stroke-linecap="round" stroke-linejoin="round"/>
</svg>
