<svg width="20" height="20" viewBox="0 0 20 20" fill="none" xmlns="http://www.w3.org/2000/svg">
<rect width="20" height="20" fill="white"/>
<path d="M3.25 4.81481V3.33333M6.25 4.81481V3.33333M15.25 12.2222V5.92593C15.25 5.23833 14.9734 4.57889 14.4812 4.09269C13.9889 3.60648 13.3212 3.33333 12.625 3.33333C11.9288 3.33333 11.2611 3.60648 10.7688 4.09269C10.2766 4.57889 10 5.23833 10 5.92593V14.0741C10 14.7617 9.72344 15.4211 9.23116 15.9073C8.73887 16.3935 8.07119 16.6667 7.375 16.6667C6.67881 16.6667 6.01113 16.3935 5.51884 15.9073C5.02656 15.4211 4.75 14.7617 4.75 14.0741V7.77778M13.75 16.6667V15.1852M16.75 16.6667V15.1852M4 7.77778C3.60218 7.77778 3.22064 7.62169 2.93934 7.34386C2.65804 7.06603 2.5 6.68921 2.5 6.2963V4.81481H7V6.2963C7 6.68921 6.84196 7.06603 6.56066 7.34386C6.27936 7.62169 5.89782 7.77778 5.5 7.77778H4ZM17.5 15.1852H13V13.7037C13 13.3108 13.158 12.934 13.4393 12.6561C13.7206 12.3783 14.1022 12.2222 14.5 12.2222H16C16.3978 12.2222 16.7794 12.3783 17.0607 12.6561C17.342 12.934 17.5 13.3108 17.5 13.7037V15.1852Z" stroke="#5D6481" stroke-linecap="round" stroke-linejoin="round"/>
</svg>
