<svg width="20" height="20" viewBox="0 0 20 20" fill="none" xmlns="http://www.w3.org/2000/svg">
<rect width="20" height="20" fill="white"/>
<path d="M10.8269 11.5683L10.9275 11.578C11.1552 11.6247 11.3269 11.8267 11.3269 12.0683C11.3269 12.3098 11.1552 12.5118 10.9275 12.5585L10.8269 12.5683H7.57886C7.30287 12.5681 7.07886 12.3443 7.07886 12.0683C7.07886 11.7922 7.30287 11.5684 7.57886 11.5683H10.8269ZM13.3152 10.1972V6.59268C13.3152 6.22943 13.315 5.98746 13.2996 5.80166C13.2846 5.62178 13.2582 5.53911 13.2312 5.48721C13.1603 5.35095 13.0491 5.23969 12.9128 5.16885C12.8609 5.14189 12.7783 5.11543 12.5984 5.10049C12.4126 5.08509 12.1706 5.08487 11.8074 5.08487H7.09253C6.72929 5.08487 6.48731 5.08508 6.30151 5.10049C6.12163 5.11543 6.03896 5.14189 5.98706 5.16885C5.85081 5.2397 5.73955 5.35096 5.6687 5.48721C5.64174 5.53911 5.61528 5.62178 5.60034 5.80166C5.58493 5.98746 5.58472 6.22944 5.58472 6.59268V12.8017C5.58472 13.1652 5.58491 13.4078 5.60034 13.5937C5.61527 13.7733 5.64177 13.8553 5.6687 13.9071C5.73951 14.0434 5.8508 14.1546 5.98706 14.2255C6.03896 14.2525 6.12163 14.2789 6.30151 14.2939C6.48732 14.3093 6.72926 14.3105 7.09253 14.3105H10.074L10.1746 14.3202C10.4023 14.3669 10.574 14.5689 10.574 14.8105C10.5737 15.0518 10.4022 15.2531 10.1746 15.2997L10.074 15.3105H7.09253C6.74588 15.3105 6.45531 15.3106 6.21851 15.2909C5.97567 15.2708 5.74455 15.2267 5.52612 15.1132C5.20716 14.9474 4.94672 14.6871 4.78101 14.3681C4.66764 14.1497 4.62441 13.9184 4.60425 13.6757C4.58462 13.4389 4.58472 13.1482 4.58472 12.8017V6.59268C4.58472 6.24603 4.58458 5.95546 4.60425 5.71866C4.62442 5.47583 4.66755 5.24469 4.78101 5.02627C4.94675 4.70726 5.20711 4.44691 5.52612 4.28116C5.74454 4.1677 5.97568 4.12457 6.21851 4.1044C6.45531 4.08473 6.74588 4.08487 7.09253 4.08487H11.8074C12.154 4.08487 12.4446 4.08474 12.6814 4.1044C12.9242 4.12457 13.1554 4.16769 13.3738 4.28116C13.6928 4.44689 13.9531 4.70725 14.1189 5.02627C14.2324 5.24469 14.2755 5.47583 14.2957 5.71866C14.3153 5.95546 14.3152 6.24603 14.3152 6.59268V10.1972C14.3152 10.4733 14.0913 10.6972 13.8152 10.6972C13.5391 10.6971 13.3152 10.4733 13.3152 10.1972ZM11.321 9.07413C11.5971 9.07421 11.821 9.29804 11.821 9.57413C11.8209 9.85007 11.597 10.074 11.321 10.0741H7.57886C7.30297 10.0739 7.07903 9.85001 7.07886 9.57413C7.07886 9.29809 7.30287 9.0743 7.57886 9.07413H11.321ZM11.321 6.57901C11.597 6.57909 11.8209 6.80307 11.821 7.07901C11.821 7.3551 11.5971 7.57892 11.321 7.57901H7.57886C7.30287 7.57883 7.07886 7.35504 7.07886 7.07901C7.07903 6.80312 7.30297 6.57918 7.57886 6.57901H11.321Z" fill="#383C4D"/>
<path d="M14.5616 15.7687L13.6383 14.8454L12.7151 15.7687C12.5198 15.9639 12.2032 15.9639 12.008 15.7687C11.8127 15.5734 11.8127 15.2568 12.008 15.0616L12.9312 14.1383L12.008 13.2151C11.8127 13.0198 11.8127 12.7032 12.008 12.508C12.2032 12.3128 12.5198 12.3127 12.7151 12.508L13.6383 13.4312L14.5616 12.508L14.6396 12.4438C14.8337 12.3155 15.0977 12.3371 15.2687 12.508C15.4396 12.6789 15.4612 12.943 15.3329 13.1371L15.2687 13.2151L14.3454 14.1383L15.2687 15.0616C15.4639 15.2568 15.4639 15.5734 15.2687 15.7687C15.0734 15.9639 14.7568 15.9639 14.5616 15.7687Z" fill="#383C4D"/>
</svg>
