<svg width="20" height="20" viewBox="0 0 20 20" fill="none" xmlns="http://www.w3.org/2000/svg">
<rect width="20" height="20" fill="white"/>
<path d="M4.94043 3.5C5.3096 3.5 5.60261 3.49444 5.87305 3.5791H5.87402C6.10078 3.65065 6.30584 3.76537 6.48535 3.9209L6.56348 3.99414C6.63848 4.07037 6.7059 4.15583 6.77148 4.25L7.03809 4.67187L7.05957 4.71289L12.0029 14.8281C12.2161 15.1787 12.2754 15.2639 12.3438 15.3232H12.3428C12.4166 15.3872 12.5008 15.435 12.5986 15.4668L12.6748 15.4834C12.7641 15.4968 12.9076 15.5 13.2334 15.5H15.1738C15.45 15.5 15.6738 15.7239 15.6738 16C15.6738 16.2761 15.45 16.5 15.1738 16.5H13.2334C12.8644 16.5 12.5703 16.5056 12.2998 16.4209L12.2969 16.4199C12.1278 16.3657 11.9705 16.2881 11.8271 16.1875L11.6885 16.0791C11.4733 15.8924 11.3263 15.641 11.1357 15.3271C11.1279 15.3142 11.1209 15.3007 11.1143 15.2871L6.16992 5.1709C5.95663 4.82131 5.89828 4.73597 5.83008 4.67676C5.75491 4.61168 5.67084 4.56403 5.57324 4.5332V4.53223C5.48352 4.50436 5.37311 4.5 4.94043 4.5H3C2.72386 4.5 2.5 4.27614 2.5 4C2.5 3.72386 2.72386 3.5 3 3.5H4.94043ZM17 3.5C17.2761 3.5 17.5 3.72386 17.5 4C17.5 4.27614 17.2761 4.5 17 4.5H12.1309C11.8547 4.5 11.6309 4.27614 11.6309 4C11.6309 3.72386 11.8547 3.5 12.1309 3.5H17Z" fill="#3E4054"/>
</svg>
