<svg width="20" height="20" viewBox="0 0 20 20" fill="none" xmlns="http://www.w3.org/2000/svg">
<rect width="20" height="20" fill="white"/>
<path d="M14.6465 4.64648C14.8417 4.45122 15.1582 4.45122 15.3535 4.64648C15.5488 4.84175 15.5488 5.15825 15.3535 5.35351L10.707 10L15.3535 14.6465L15.418 14.7246C15.5461 14.9187 15.5244 15.1827 15.3535 15.3535C15.1826 15.5244 14.9187 15.5461 14.7246 15.418L14.6465 15.3535L9.99999 10.707L5.35351 15.3535C5.15825 15.5488 4.84174 15.5488 4.64648 15.3535C4.45122 15.1583 4.45122 14.8417 4.64648 14.6465L9.29296 10L4.64648 5.35351L4.58202 5.27539C4.45386 5.08131 4.47561 4.81735 4.64648 4.64648C4.81734 4.47562 5.08131 4.45387 5.27538 4.58203L5.35351 4.64648L9.99999 9.29297L14.6465 4.64648Z" fill="#383C4D"/>
</svg>
