<svg width="20" height="20" viewBox="0 0 20 20" fill="none" xmlns="http://www.w3.org/2000/svg">
<rect width="20" height="20" fill="white"/>
<path d="M7.94118 2.70938C9.51037 2.32042 11.2474 2.45665 12.7031 3.26264C14.0813 4.0258 15.1634 5.36664 15.6091 7.32027C19.7032 8.13488 21.3536 13.4238 18.052 16.1567L18.0531 16.1578C17.0351 17.0304 15.7247 17.5061 14.3583 17.4976V17.4998H14.2761C13.9576 17.4998 13.6995 17.2413 13.6992 16.9229C13.6992 16.6043 13.9575 16.346 14.2761 16.346H14.3617L14.5668 16.3426C15.5854 16.3044 16.5473 15.9286 17.3016 15.2823L17.3106 15.2744L17.5393 15.0704C19.7842 12.898 18.4435 8.80544 15.0558 8.39975C14.8032 8.36953 14.5996 8.17701 14.5555 7.92649C14.2305 6.07386 13.2932 4.90856 12.1442 4.27226C10.9788 3.62697 9.54663 3.49903 8.21838 3.8283C6.88965 4.15769 5.71627 4.9316 5.04078 6.02219C4.37638 7.09513 4.1562 8.53488 4.83007 10.3007C4.94357 10.5983 4.79417 10.9319 4.49654 11.0455C4.19888 11.159 3.8653 11.0096 3.75172 10.712C3.6406 10.4208 3.55096 10.1342 3.47903 9.85333C2.11486 10.1451 1.34373 11.5099 1.34373 13.0771C1.34382 14.7572 2.23014 16.2039 3.78327 16.346H5.38221L5.49827 16.3573C5.76131 16.4109 5.95913 16.644 5.95913 16.9229C5.95913 17.2018 5.76131 17.4349 5.49827 17.4886L5.38221 17.4998H3.75059C3.7342 17.4998 3.71734 17.499 3.70101 17.4976C1.2865 17.2912 0.189975 15.0671 0.18988 13.0771C0.18988 11.2044 1.16084 9.12381 3.28747 8.713C3.18932 7.46384 3.48118 6.3485 4.05933 5.41484C4.91982 4.0253 6.37264 3.09821 7.94118 2.70938ZM8.83136 14.2332C8.60198 14.4541 8.23664 14.4467 8.01555 14.2175C7.7947 13.9881 7.80094 13.6227 8.0302 13.4016L8.83136 14.2332ZM11.5639 10.7965L11.965 11.2111L10.8281 12.3064L11.965 13.4016C12.1943 13.6227 12.2006 13.9881 11.9797 14.2175C11.7585 14.4468 11.3932 14.4542 11.1638 14.2332L9.99761 13.1075L8.83136 14.2332L8.43134 13.8174L8.0302 13.4016L9.16602 12.3064L8.0302 11.2111L8.43134 10.7965L8.83136 10.3807L9.99761 11.5041L11.1638 10.3807L11.5639 10.7965ZM8.01555 10.3953C8.2367 10.1661 8.60203 10.1596 8.83136 10.3807L8.0302 11.2111C7.80113 10.9899 7.79448 10.6246 8.01555 10.3953ZM11.1638 10.3807C11.3932 10.1596 11.7585 10.1661 11.9797 10.3953C12.2008 10.6246 12.1941 10.9899 11.965 11.2111L11.1638 10.3807Z" fill="#383C4D"/>
</svg>
