<svg width="20" height="20" viewBox="0 0 20 20" fill="none" xmlns="http://www.w3.org/2000/svg">
<rect width="20" height="20" fill="white"/>
<path d="M7.5 12.5H6C5.17157 12.5 4.5 13.1716 4.5 14C4.5 14.8284 5.17157 15.5 6 15.5C6.82843 15.5 7.5 14.8284 7.5 14V12.5ZM15.5 14C15.5 13.1716 14.8284 12.5 14 12.5H12.5V14C12.5 14.8284 13.1716 15.5 14 15.5C14.8284 15.5 15.5 14.8284 15.5 14ZM8.5 11.5H11.5V8.5H8.5V11.5ZM7.5 6C7.5 5.17157 6.82843 4.5 6 4.5C5.17157 4.5 4.5 5.17157 4.5 6C4.5 6.82843 5.17157 7.5 6 7.5H7.5V6ZM15.5 6C15.5 5.17157 14.8284 4.5 14 4.5C13.1716 4.5 12.5 5.17157 12.5 6V7.5H14C14.8284 7.5 15.5 6.82843 15.5 6ZM16.5 6C16.5 7.38071 15.3807 8.5 14 8.5H12.5V11.5H14C15.3807 11.5 16.5 12.6193 16.5 14C16.5 15.3807 15.3807 16.5 14 16.5C12.6193 16.5 11.5 15.3807 11.5 14V12.5H8.5V14C8.5 15.3807 7.38071 16.5 6 16.5C4.61929 16.5 3.5 15.3807 3.5 14C3.5 12.6193 4.61929 11.5 6 11.5H7.5V8.5H6C4.61929 8.5 3.5 7.38071 3.5 6C3.5 4.61929 4.61929 3.5 6 3.5C7.38071 3.5 8.5 4.61929 8.5 6V7.5H11.5V6C11.5 4.61929 12.6193 3.5 14 3.5C15.3807 3.5 16.5 4.61929 16.5 6Z" fill="#3E4054"/>
</svg>
