<svg width="20" height="20" viewBox="0 0 20 20" fill="none" xmlns="http://www.w3.org/2000/svg">
<rect width="20" height="20" fill="white"/>
<path d="M2.87306 14.7524V10.5356C2.86857 10.5265 2.85493 10.5052 2.81837 10.4712C2.74559 10.4036 2.62809 10.3318 2.47951 10.2642C2.33569 10.1987 2.1873 10.148 2.07228 10.1138C2.01555 10.0969 1.9683 10.0847 1.93654 10.0767L1.89357 10.0659L1.80958 10.0396C1.62217 9.96243 1.49642 9.77732 1.50001 9.56885C1.50414 9.33064 1.6758 9.12824 1.91017 9.08545L1.91798 9.08447C1.92522 9.08303 1.93683 9.08002 1.95216 9.07666C1.98328 9.06985 2.02925 9.05933 2.08497 9.04443C2.19863 9.01403 2.34517 8.96849 2.48634 8.90674C2.63219 8.84293 2.74496 8.77336 2.81447 8.70752C2.84717 8.67653 2.86208 8.65409 2.86818 8.64209C2.8727 8.63318 2.87306 8.6298 2.87306 8.62744V5.24756C2.87306 3.80487 4.04268 2.63525 5.48537 2.63525H5.90724L6.0088 2.64502C6.23648 2.69177 6.40724 2.89375 6.40724 3.13525C6.40724 3.37676 6.23648 3.57874 6.0088 3.62549L5.90724 3.63525H5.48537C4.59497 3.63525 3.87306 4.35716 3.87306 5.24756V8.62744C3.87291 8.98255 3.69401 9.25218 3.50197 9.43408C3.44137 9.49145 3.3745 9.54061 3.30763 9.5874C3.37375 9.63359 3.43915 9.68312 3.49904 9.73877C3.68395 9.91066 3.873 10.1745 3.87306 10.5278V14.7524C3.87307 15.6428 4.59497 16.3647 5.48537 16.3647H5.90724L6.0088 16.3745C6.23646 16.4213 6.40724 16.6232 6.40724 16.8647C6.40718 17.1061 6.23635 17.3072 6.0088 17.354L5.90724 17.3647H5.48537C4.04269 17.3647 2.87307 16.1951 2.87306 14.7524ZM16.127 14.7524V11.3726C16.1271 11.0174 16.306 10.7478 16.4981 10.5659C16.5585 10.5087 16.6237 10.4574 16.6904 10.4106C16.6251 10.3649 16.5602 10.3163 16.501 10.2612C16.3161 10.0894 16.1271 9.82547 16.127 9.47217V5.24756C16.127 4.41282 15.4926 3.72662 14.6797 3.64404L14.5147 3.63525H14.0928C13.8166 3.63525 13.5928 3.4114 13.5928 3.13525C13.5928 2.85911 13.8166 2.63525 14.0928 2.63525H14.5147L14.7822 2.64893C16.0993 2.78284 17.127 3.89515 17.127 5.24756V9.46436C17.1315 9.47351 17.1452 9.4949 17.1817 9.52881C17.2544 9.59645 17.3719 9.66815 17.5205 9.73584C17.6644 9.80133 17.8127 9.85202 17.9277 9.88623C17.9845 9.9031 18.0317 9.91533 18.0635 9.92334L18.1065 9.93408L18.1904 9.96045C18.3778 10.0376 18.5036 10.2227 18.5 10.4312C18.4964 10.6395 18.3646 10.8204 18.1748 10.8911L18.0899 10.9146L18.082 10.9155C18.0748 10.917 18.0632 10.92 18.0479 10.9233C18.0167 10.9302 17.9708 10.9407 17.9151 10.9556C17.8014 10.986 17.6549 11.0315 17.5137 11.0933C17.3679 11.1571 17.2551 11.2266 17.1856 11.2925C17.1529 11.3234 17.1379 11.3459 17.1319 11.3579C17.1273 11.3669 17.127 11.3702 17.127 11.3726V14.7524L17.1133 15.019C16.9886 16.2486 16.0117 17.2261 14.7822 17.3511L14.5147 17.3647H14.0928C13.8167 17.3647 13.5929 17.1408 13.5928 16.8647C13.5928 16.5886 13.8166 16.3647 14.0928 16.3647H14.5147L14.6797 16.356C15.4384 16.2789 16.042 15.6762 16.1192 14.9175L16.127 14.7524Z" fill="#6A53DF"/>
</svg>
