<svg width="20" height="20" viewBox="0 0 20 20" fill="none" xmlns="http://www.w3.org/2000/svg">
<rect width="20" height="20" fill="white"/>
<path d="M17.2779 7.87847C17.2779 6.88039 17.2771 6.16161 17.231 5.59722C17.1911 5.10848 17.119 4.76911 17.0005 4.49371L16.9468 4.37945C16.6922 3.87984 16.305 3.46207 15.8296 3.17046L15.6207 3.05328C15.3248 2.90255 14.9613 2.81475 14.4029 2.7691C13.8385 2.72299 13.1197 2.72222 12.1216 2.72222H7.87847C6.88039 2.72222 6.16161 2.72298 5.59722 2.7691C5.10846 2.80905 4.76912 2.88107 4.49371 2.99957L4.37945 3.05328C3.87984 3.30788 3.46207 3.69512 3.17046 4.17046L3.05328 4.37945C2.90254 4.67529 2.81474 5.03878 2.7691 5.59722C2.72298 6.16161 2.72222 6.88039 2.72222 7.87847V12.1216C2.72222 13.1197 2.72299 13.8385 2.7691 14.4029C2.81475 14.9613 2.90255 15.3248 3.05328 15.6207L3.17046 15.8296C3.46207 16.305 3.87984 16.6922 4.37945 16.9468L4.49371 17.0005C4.76911 17.119 5.10848 17.1911 5.59722 17.231C6.16161 17.2771 6.88039 17.2779 7.87847 17.2779H12.1216C13.1197 17.2779 13.8385 17.2771 14.4029 17.231C14.9613 17.1854 15.3248 17.0976 15.6207 16.9468L15.8296 16.8296C16.305 16.538 16.6922 16.1202 16.9468 15.6207L17.0005 15.5064C17.119 15.231 17.1911 14.8916 17.231 14.4029C17.2771 13.8385 17.2779 13.1197 17.2779 12.1216V7.87847ZM5.40386 5.40386C5.57479 5.23293 5.83867 5.21206 6.03277 5.34039L6.11089 5.40386L7.98199 7.27496C8.29454 7.58751 8.31418 8.08228 8.04058 8.41753L7.98199 8.48199L6.11089 10.3531C5.91563 10.5483 5.59912 10.5483 5.40386 10.3531C5.20892 10.1578 5.20871 9.84121 5.40386 9.64605L7.17144 7.87847L5.40386 6.11089L5.34039 6.03277C5.21206 5.83867 5.23293 5.57479 5.40386 5.40386ZM11.4146 9.49957C11.6904 9.49981 11.9144 9.72378 11.9146 9.99957C11.9146 10.2756 11.6905 10.4993 11.4146 10.4996H9.29253C9.01657 10.4994 8.79253 10.2756 8.79253 9.99957C8.79277 9.72375 9.01672 9.49978 9.29253 9.49957H11.4146ZM18.2779 12.1216C18.2779 13.1032 18.2783 13.8694 18.2281 14.4839C18.1837 15.0266 18.0982 15.4847 17.9205 15.899L17.8384 16.0748C17.4999 16.7392 16.9843 17.2945 16.3521 17.6822L16.0748 17.8384C15.6144 18.073 15.1044 18.1774 14.4839 18.2281C13.8694 18.2783 13.1032 18.2779 12.1216 18.2779H7.87847C6.89694 18.2779 6.13069 18.2783 5.51617 18.2281C4.97318 18.1837 4.51466 18.0984 4.10015 17.9205L3.92535 17.8384C3.26092 17.4999 2.70565 16.9843 2.31792 16.3521L2.16167 16.0748C1.92711 15.6144 1.82272 15.1044 1.77203 14.4839C1.72182 13.8694 1.72222 13.1032 1.72222 12.1216V7.87847C1.72222 6.89694 1.72182 6.13069 1.77203 5.51617C1.82272 4.89572 1.92711 4.38571 2.16167 3.92535L2.31792 3.648C2.70565 3.0158 3.2609 2.50023 3.92535 2.16167L4.10015 2.07964C4.51467 1.90168 4.97316 1.81639 5.51617 1.77203C6.13069 1.72182 6.89694 1.72222 7.87847 1.72222H12.1216C13.1032 1.72222 13.8694 1.72182 14.4839 1.77203C15.1044 1.82272 15.6144 1.92711 16.0748 2.16167L16.3521 2.31792C16.9843 2.70565 17.4999 3.26092 17.8384 3.92535L17.9205 4.10015C18.0984 4.51466 18.1837 4.97318 18.2281 5.51617C18.2783 6.13069 18.2779 6.89694 18.2779 7.87847V12.1216Z" fill="#383C4D"/>
</svg>
