<svg width="20" height="20" viewBox="0 0 20 20" fill="none" xmlns="http://www.w3.org/2000/svg">
<rect width="20" height="20" fill="white"/>
<path d="M16.5 8.59961C16.4998 8.10273 16.0965 7.7002 15.5996 7.7002H8.59961C8.10286 7.70041 7.70041 8.10286 7.7002 8.59961V15.5996C7.7002 16.0965 8.10273 16.4998 8.59961 16.5H15.5996C16.0967 16.5 16.5 16.0967 16.5 15.5996V8.59961ZM12.2998 4.40039C12.2998 3.90666 11.8941 3.50021 11.4004 3.5H4.40039C3.90653 3.5 3.5 3.90653 3.5 4.40039V11.4004C3.5002 11.8632 3.85715 12.2485 4.30859 12.2949L4.40039 12.2998L4.50098 12.3105C4.72862 12.3573 4.9003 12.5584 4.90039 12.7998C4.90039 13.0414 4.72874 13.2434 4.50098 13.29L4.40039 13.2998L4.20605 13.29C3.25048 13.1923 2.5002 12.3809 2.5 11.4004V4.40039C2.5 3.35425 3.35425 2.5 4.40039 2.5H11.4004C12.4464 2.50021 13.2998 3.35438 13.2998 4.40039C13.2996 4.67635 13.0758 4.90039 12.7998 4.90039C12.5239 4.90029 12.3 4.67629 12.2998 4.40039ZM17.5 15.5996C17.5 16.649 16.649 17.5 15.5996 17.5H8.59961C7.55045 17.4998 6.7002 16.6488 6.7002 15.5996V8.59961C6.70041 7.55058 7.55058 6.70041 8.59961 6.7002H15.5996C16.6488 6.7002 17.4998 7.55045 17.5 8.59961V15.5996Z" fill="#292D32"/>
</svg>
