<svg width="20" height="20" viewBox="0 0 20 20" fill="none" xmlns="http://www.w3.org/2000/svg">
<rect width="20" height="20" fill="white"/>
<path d="M6.64119 6.35041C6.78603 6.15698 7.04412 6.09876 7.25447 6.19807L7.34139 6.24983L18.4664 14.575L18.5406 14.6434C18.6952 14.8172 18.7118 15.0817 18.567 15.2752C18.4221 15.4685 18.164 15.5268 17.9537 15.4276L17.8668 15.3758L6.74178 7.05061L6.66756 6.98225C6.51292 6.80842 6.49638 6.54394 6.64119 6.35041Z" fill="#383C4D"/>
<path d="M17.8668 4.59963C18.0878 4.43437 18.4016 4.47932 18.567 4.70022C18.7322 4.92129 18.6873 5.23501 18.4664 5.40041L7.34138 13.7168C7.12025 13.8821 6.80655 13.8373 6.64118 13.6162C6.47589 13.3951 6.52076 13.0814 6.74177 12.916L17.8668 4.59963Z" fill="#383C4D"/>
<path d="M6.83301 14.583C6.83301 13.2484 5.75153 12.1662 4.41699 12.166C3.0823 12.166 2 13.2483 2 14.583C2.00018 15.9175 3.08241 16.999 4.41699 16.999C5.75142 16.9988 6.83283 15.9174 6.83301 14.583ZM7.83301 14.583C7.83283 16.4697 6.30371 17.9988 4.41699 17.999C2.53013 17.999 1.00018 16.4698 1 14.583C1 12.696 2.53002 11.166 4.41699 11.166C6.30382 11.1662 7.83301 12.6961 7.83301 14.583Z" fill="#383C4D"/>
<path d="M6.83301 5.41699C6.83301 4.08241 5.75153 3.00018 4.41699 3C3.0823 3 2 4.0823 2 5.41699C2.00018 6.75153 3.08241 7.83301 4.41699 7.83301C5.75142 7.83283 6.83283 6.75142 6.83301 5.41699ZM7.83301 5.41699C7.83283 7.30371 6.30371 8.83283 4.41699 8.83301C2.53013 8.83301 1.00018 7.30382 1 5.41699C1 3.53002 2.53002 2 4.41699 2C6.30382 2.00018 7.83301 3.53013 7.83301 5.41699Z" fill="#383C4D"/>
</svg>
