<svg width="20" height="20" viewBox="0 0 20 20" fill="none" xmlns="http://www.w3.org/2000/svg">
<rect width="20" height="20" fill="white"/>
<path d="M14.5 12.4004C14.5 11.5726 14.1828 10.7813 13.623 10.2012C13.0639 9.62174 12.3091 9.29982 11.5264 9.2998C10.7436 9.2998 9.98884 9.62176 9.42969 10.2012C8.86994 10.7813 8.55273 11.5726 8.55273 12.4004C8.55283 13.2281 8.87003 14.0186 9.42969 14.5986C9.98885 15.1781 10.7436 15.5 11.5264 15.5C12.3091 15.5 13.0639 15.1781 13.623 14.5986C14.1827 14.0186 14.4999 13.2281 14.5 12.4004ZM12.7217 12.9219C12.9304 13.1024 12.9538 13.418 12.7734 13.627C12.5931 13.8358 12.2774 13.8588 12.0684 13.6787L12.7217 12.9219ZM11.0264 11.2002C11.0264 10.9241 11.2502 10.7002 11.5264 10.7002C11.8025 10.7002 12.0264 10.9241 12.0264 11.2002V12.3203L12.7217 12.9219L12.3945 13.2998L12.0684 13.6787L11.1992 12.9287C11.0893 12.8337 11.0264 12.6951 11.0264 12.5498V11.2002ZM13.9209 7.2998V6.40039C13.9209 6.20909 13.8471 6.02845 13.7217 5.89844C13.5968 5.76924 13.4312 5.7002 13.2627 5.7002H12.0264V6.40039C12.0262 6.67634 11.8024 6.90036 11.5264 6.90039C11.2504 6.90039 11.0266 6.67635 11.0264 6.40039V5.7002H7.39453V6.40039C7.39432 6.67635 7.17054 6.90039 6.89453 6.90039C6.61861 6.90028 6.39474 6.67629 6.39453 6.40039V5.7002H5.1582C4.98971 5.7002 4.82406 5.76919 4.69922 5.89844C4.57376 6.02845 4.5 6.20909 4.5 6.40039V8.2998H6.89453C7.17061 8.2998 7.39443 8.52375 7.39453 8.7998C7.39453 9.07595 7.17067 9.2998 6.89453 9.2998H4.5V14.7998C4.5 14.9911 4.57376 15.1717 4.69922 15.3018C4.82405 15.4309 4.98975 15.5 5.1582 15.5H7.18457L7.28516 15.5098C7.51295 15.5564 7.68457 15.7584 7.68457 16C7.68457 16.2416 7.51295 16.4436 7.28516 16.4902L7.18457 16.5H5.1582C4.71275 16.5 4.28889 16.3166 3.97949 15.9961C3.67065 15.676 3.5 15.245 3.5 14.7998V6.40039C3.5 5.95517 3.67065 5.52417 3.97949 5.2041C4.2889 4.88353 4.7127 4.7002 5.1582 4.7002H6.39453V4C6.39453 3.72393 6.61848 3.50011 6.89453 3.5C7.17067 3.5 7.39453 3.72386 7.39453 4V4.7002H11.0264V4C11.0264 3.72386 11.2502 3.5 11.5264 3.5C11.8025 3.50003 12.0264 3.72387 12.0264 4V4.7002H13.2627C13.7082 4.7002 14.132 4.88358 14.4414 5.2041C14.7502 5.52417 14.9209 5.95517 14.9209 6.40039V7.2998C14.9209 7.57595 14.697 7.7998 14.4209 7.7998C14.1448 7.79972 13.9209 7.5759 13.9209 7.2998ZM15.5 12.4004C15.4999 13.4819 15.0858 14.5229 14.3428 15.293C13.5991 16.0637 12.5861 16.5 11.5264 16.5C10.4666 16.5 9.45368 16.0637 8.70996 15.293C7.96694 14.5229 7.55283 13.482 7.55273 12.4004C7.55273 11.3187 7.96683 10.277 8.70996 9.50684C9.45368 8.73611 10.4666 8.2998 11.5264 8.2998C12.5861 8.29982 13.5991 8.73609 14.3428 9.50684C15.0859 10.277 15.5 11.3187 15.5 12.4004Z" fill="#383C4D"/>
</svg>
