<svg width="20" height="20" viewBox="0 0 20 20" fill="none" xmlns="http://www.w3.org/2000/svg">
<rect width="20" height="20" fill="white"/>
<path d="M14.167 6.2998H5.83301V15.5996C5.83301 15.7954 5.93129 16.0277 6.1123 16.2178C6.29476 16.4093 6.50514 16.5 6.66699 16.5H13.333C13.4949 16.5 13.7052 16.4093 13.8877 16.2178C14.0687 16.0277 14.167 15.7954 14.167 15.5996V6.2998ZM8.16699 13.5V9.2998C8.1671 9.02375 8.39091 8.7998 8.66699 8.7998C8.94292 8.79998 9.16689 9.02386 9.16699 9.2998V13.5C9.16699 13.776 8.94299 13.9998 8.66699 14C8.39085 14 8.16699 13.7761 8.16699 13.5ZM10.833 13.5V9.2998C10.8331 9.02386 11.0571 8.79998 11.333 8.7998C11.6091 8.7998 11.8329 9.02375 11.833 9.2998V13.5C11.833 13.7761 11.6091 14 11.333 14C11.057 13.9998 10.833 13.776 10.833 13.5ZM12.167 4.40039C12.167 4.20458 12.0687 3.97229 11.8877 3.78223C11.7052 3.59073 11.4949 3.5 11.333 3.5H8.66699C8.50514 3.5 8.29476 3.59073 8.1123 3.78223C7.93129 3.97229 7.83301 4.20458 7.83301 4.40039V5.2998H12.167V4.40039ZM13.167 5.2998H16L16.1006 5.31055C16.3284 5.35712 16.4999 5.55823 16.5 5.7998C16.5 6.0415 16.3285 6.2435 16.1006 6.29004L16 6.2998H15.167V15.5996C15.167 16.1037 14.9312 16.5723 14.6123 16.9072C14.2948 17.2406 13.8378 17.5 13.333 17.5H6.66699C6.16222 17.5 5.7052 17.2406 5.3877 16.9072C5.06879 16.5723 4.83301 16.1037 4.83301 15.5996V6.2998H4C3.72386 6.2998 3.5 6.07595 3.5 5.7998C3.50011 5.52375 3.72392 5.2998 4 5.2998H6.83301V4.40039C6.83301 3.89629 7.06879 3.4277 7.3877 3.09277C7.7052 2.75939 8.16222 2.5 8.66699 2.5H11.333C11.8378 2.5 12.2948 2.75939 12.6123 3.09277C12.9312 3.4277 13.167 3.89629 13.167 4.40039V5.2998Z" fill="#383C4D"/>
</svg>
