<svg width="20" height="20" viewBox="0 0 20 20" fill="none" xmlns="http://www.w3.org/2000/svg">
<rect width="20" height="20" fill="white"/>
<path d="M3.98503 17.6044L3.75803 18.0499V18.0499L3.98503 17.6044ZM2.39575 16.0151L2.84126 15.7881H2.84126L2.39575 16.0151ZM17.6042 16.0151L17.1587 15.7881V15.7881L17.6042 16.0151ZM16.015 17.6044L15.788 17.1589L16.015 17.6044ZM16.015 2.39557L15.788 2.84107V2.84107L16.015 2.39557ZM17.6042 3.98488L18.0498 3.75789V3.75789L17.6042 3.98488ZM3.98503 2.39557L4.21202 2.84107V2.84107L3.98503 2.39557ZM2.39575 3.98488L2.84126 4.21187H2.84126L2.39575 3.98488ZM7.09246 2.5C7.36861 2.49901 7.59166 2.27436 7.59068 1.99822C7.5897 1.72208 7.36505 1.49902 7.0889 1.5L7.09068 2L7.09246 2.5ZM12.9111 1.5C12.635 1.49902 12.4103 1.72208 12.4093 1.99822C12.4083 2.27436 12.6314 2.49901 12.9075 2.5L12.9093 2L12.9111 1.5ZM2.5 12.8488C2.49919 12.5726 2.27467 12.3494 1.99853 12.3503C1.72239 12.3511 1.49919 12.5756 1.5 12.8517L2 12.8503L2.5 12.8488ZM18.5 12.8517C18.5008 12.5756 18.2776 12.3511 18.0015 12.3503C17.7253 12.3494 17.5008 12.5726 17.5 12.8488L18 12.8503L18.5 12.8517ZM17.4998 7.09239C17.5008 7.36854 17.7254 7.5916 18.0016 7.59061C18.2777 7.58963 18.5008 7.36498 18.4998 7.08884L17.9998 7.09062L17.4998 7.09239ZM7.08891 18.5C7.36505 18.501 7.5897 18.2779 7.59068 18.0018C7.59166 17.7256 7.36861 17.501 7.09246 17.5L7.09068 18L7.08891 18.5ZM12.9076 17.5C12.6315 17.501 12.4084 17.7256 12.4094 18.0018C12.4104 18.2779 12.635 18.501 12.9112 18.5L12.9094 18L12.9076 17.5ZM1.50019 7.08884C1.49921 7.36498 1.72227 7.58963 1.99841 7.59061C2.27455 7.5916 2.49921 7.36854 2.50019 7.0924L2.00019 7.09062L1.50019 7.08884ZM3.98503 17.6044L4.21202 17.1589C3.62183 16.8582 3.14198 16.3783 2.84126 15.7881L2.39575 16.0151L1.95025 16.2421C2.34684 17.0205 2.97967 17.6533 3.75803 18.0499L3.98503 17.6044ZM17.6042 16.0151L17.1587 15.7881C16.858 16.3783 16.3782 16.8582 15.788 17.1589L16.015 17.6044L16.242 18.0499C17.0203 17.6533 17.6532 17.0205 18.0498 16.2421L17.6042 16.0151ZM16.015 2.39557L15.788 2.84107C16.3782 3.1418 16.858 3.62166 17.1587 4.21187L17.6042 3.98488L18.0498 3.75789C17.6532 2.97952 17.0203 2.34667 16.242 1.95007L16.015 2.39557ZM3.98503 2.39557L3.75803 1.95007C2.97967 2.34667 2.34684 2.97952 1.95025 3.75789L2.39575 3.98488L2.84126 4.21187C3.14198 3.62166 3.62183 3.1418 4.21202 2.84107L3.98503 2.39557ZM7.09068 2L7.0889 1.5C5.55688 1.50546 4.56379 1.5395 3.75803 1.95007L3.98503 2.39557L4.21202 2.84107C4.7648 2.55942 5.49688 2.50568 7.09246 2.5L7.09068 2ZM12.9093 2L12.9075 2.5C14.5031 2.50568 15.2352 2.55942 15.788 2.84107L16.015 2.39557L16.242 1.95007C15.4362 1.5395 14.4431 1.50546 12.9111 1.5L12.9093 2ZM2 12.8503L1.5 12.8517C1.50461 14.4189 1.53495 15.427 1.95025 16.2421L2.39575 16.0151L2.84126 15.7881C2.55567 15.2276 2.5048 14.4843 2.5 12.8488L2 12.8503ZM18 12.8503L17.5 12.8488C17.4952 14.4843 17.4443 15.2276 17.1587 15.7881L17.6042 16.0151L18.0498 16.2421C18.465 15.427 18.4954 14.4189 18.5 12.8517L18 12.8503ZM17.9998 7.09062L18.4998 7.08884C18.4944 5.55677 18.4603 4.56367 18.0498 3.75789L17.6042 3.98488L17.1587 4.21187C17.4404 4.76466 17.4941 5.49677 17.4998 7.09239L17.9998 7.09062ZM7.09068 18L7.09246 17.5C5.49688 17.4943 4.7648 17.4406 4.21202 17.1589L3.98503 17.6044L3.75803 18.0499C4.56379 18.4605 5.55688 18.4945 7.08891 18.5L7.09068 18ZM12.9094 18L12.9112 18.5C14.4432 18.4945 15.4362 18.4605 16.242 18.0499L16.015 17.6044L15.788 17.1589C15.2352 17.4406 14.5032 17.4943 12.9076 17.5L12.9094 18ZM2.00019 7.09062L2.50019 7.0924C2.50587 5.49677 2.55961 4.76466 2.84126 4.21187L2.39575 3.98488L1.95025 3.75789C1.5397 4.56366 1.50565 5.55677 1.50019 7.08884L2.00019 7.09062Z" fill="#383C4D"/>
<path d="M10.1045 13.7398C9.98293 13.7398 9.86348 13.7053 9.75817 13.6396L7.33374 12.1432C7.22854 12.0776 7.14117 11.9833 7.08038 11.8697C7.01959 11.7561 6.98752 11.6272 6.9874 11.496V8.5032C6.98752 8.37199 7.01959 8.24313 7.08038 8.12953C7.14117 8.01594 7.22854 7.92161 7.33374 7.856L9.75817 6.3596C9.86348 6.29393 9.98293 6.25936 10.1045 6.25936C10.2261 6.25936 10.3456 6.29393 10.4509 6.3596L12.8753 7.856C12.9805 7.92161 13.0679 8.01594 13.1287 8.12953C13.1895 8.24313 13.2215 8.37199 13.2216 8.5032V11.496C13.2215 11.6272 13.1895 11.7561 13.1287 11.8697C13.0679 11.9833 12.9805 12.0776 12.8753 12.1432L10.4509 13.6396C10.3456 13.7053 10.2261 13.7398 10.1045 13.7398ZM10.1045 13.7398L10.1045 9.99963M7.08785 8.12913L10.1045 9.99963M10.1045 9.99963L13.1212 8.12913" stroke="#383C4D" stroke-linecap="round" stroke-linejoin="round"/>
</svg>
