<svg width="20" height="20" viewBox="0 0 20 20" fill="none" xmlns="http://www.w3.org/2000/svg">
<rect width="20" height="20" fill="white"/>
<path d="M4.77577 6.23543L14.017 6.23543L12.2582 4.47664C12.0632 4.28142 12.0632 3.96482 12.2582 3.76961C12.4534 3.57441 12.7699 3.57453 12.9652 3.76961L15.5775 6.38191L15.642 6.46004C15.77 6.65409 15.7483 6.91815 15.5775 7.08894L12.9652 9.70027L12.8871 9.76472C12.693 9.89279 12.429 9.8711 12.2582 9.70027C12.0877 9.52946 12.0668 9.26628 12.1947 9.07234L12.2582 8.99324L14.017 7.23543L4.77577 7.23543C4.49996 7.23518 4.27597 7.01125 4.27577 6.73543C4.27577 6.45944 4.49984 6.23568 4.77577 6.23543ZM15.224 12.7647C15.5001 12.7647 15.7239 12.9887 15.724 13.2647C15.724 13.5409 15.5002 13.7647 15.224 13.7647L5.98378 13.7647L7.74159 15.5235C7.93683 15.7188 7.93685 16.0353 7.74159 16.2305C7.54633 16.4257 7.22978 16.4257 7.03456 16.2305L4.42226 13.6182C4.22737 13.423 4.22724 13.1064 4.42226 12.9112L7.03456 10.2999L7.11269 10.2354C7.30679 10.1071 7.57065 10.1289 7.74159 10.2999C7.91221 10.4706 7.93392 10.7338 7.80605 10.9278L7.74159 11.0069L5.98378 12.7647L15.224 12.7647Z" fill="#383C4D"/>
</svg>
