<svg width="20" height="20" viewBox="0 0 20 20" fill="none" xmlns="http://www.w3.org/2000/svg">
<rect width="20" height="20" fill="white"/>
<path d="M12.6203 3.54392C13.2091 3.06328 14.0777 3.09697 14.6272 3.64548L16.3527 5.36911L16.4563 5.48337C16.9049 6.0332 16.9048 6.82692 16.4563 7.37693L16.3537 7.49118L8.20919 15.6396C8.02641 15.8225 7.79978 15.9551 7.55196 16.0244L7.44454 16.0498L3.80587 16.7832C3.64176 16.8162 3.47208 16.7648 3.35372 16.6465C3.23542 16.5281 3.18398 16.3584 3.217 16.1943L3.95138 12.5595L3.97775 12.4531C4.04694 12.2057 4.17816 11.9794 4.36056 11.7968L12.5061 3.64646L12.6203 3.54392ZM5.06857 12.5039C5.0164 12.5561 4.9762 12.6186 4.95138 12.6875L4.93185 12.7578L4.34591 15.6533L7.24728 15.0693L7.31759 15.0498C7.3865 15.0249 7.44995 14.9848 7.50216 14.9326L13.5695 8.86228L11.1379 6.43064L5.06857 12.5039ZM13.9211 4.35349C13.7503 4.18283 13.4862 4.16102 13.2922 4.28904L13.2141 4.35349L11.844 5.72263L14.2756 8.15427L15.6467 6.78415L15.7102 6.70505C15.8199 6.53868 15.82 6.32153 15.7102 6.15525L15.6457 6.07712L13.9211 4.35349Z" fill="#383C4D"/>
</svg>
