<svg width="20" height="20" viewBox="0 0 20 20" fill="none" xmlns="http://www.w3.org/2000/svg">
<rect width="20" height="20" fill="white"/>
<path d="M7.48958 7.48958C7.67184 7.30733 7.9534 7.28413 8.16042 7.42083L8.24375 7.48958L12.5104 11.7563L12.5792 11.8396C12.7159 12.0466 12.6927 12.3282 12.5104 12.5104C12.3282 12.6927 12.0466 12.7159 11.8396 12.5792L11.7563 12.5104L7.48958 8.24375L7.42083 8.16042C7.28413 7.9534 7.30733 7.67184 7.48958 7.48958Z" fill="#383C4D"/>
<path d="M11.7563 7.48958C11.9645 7.2813 12.3021 7.2813 12.5104 7.48958C12.7187 7.69786 12.7187 8.03547 12.5104 8.24375L8.24375 12.5104C8.03547 12.7187 7.69786 12.7187 7.48958 12.5104C7.2813 12.3021 7.2813 11.9645 7.48958 11.7563L11.7563 7.48958Z" fill="#383C4D"/>
<path d="M16.9333 10C16.9333 6.18789 13.8121 3.06667 10 3.06667C6.18789 3.06667 3.06667 6.18789 3.06667 10C3.06667 13.8121 6.18789 16.9333 10 16.9333C13.8121 16.9333 16.9333 13.8121 16.9333 10ZM18 10C18 14.4012 14.4012 18 10 18C5.59878 18 2 14.4012 2 10C2 5.59878 5.59878 2 10 2C14.4012 2 18 5.59878 18 10Z" fill="#383C4D"/>
</svg>
