<svg width="20" height="20" viewBox="0 0 20 20" fill="none" xmlns="http://www.w3.org/2000/svg">
<rect width="20" height="20" fill="white"/>
<path d="M8.90894 10.0455C9.18508 10.0455 9.40894 10.2693 9.40894 10.5455C9.40894 10.8216 9.18508 11.0455 8.90894 11.0455H6.72729C6.45115 11.0455 6.22729 10.8216 6.22729 10.5455C6.22729 10.2693 6.45115 10.0455 6.72729 10.0455H8.90894Z" fill="#383C4D"/>
<path d="M7.57477 13.0996C7.85078 13.0996 8.07456 13.3236 8.07477 13.5996C8.07477 13.8758 7.85091 14.0996 7.57477 14.0996H6.9693C6.69316 14.0996 6.4693 13.8758 6.4693 13.5996C6.46951 13.3236 6.69329 13.0996 6.9693 13.0996H7.57477ZM14.9547 9.45703C14.9547 9.35793 14.9345 9.25981 14.8961 9.16797C14.8576 9.0761 14.8015 8.9917 14.73 8.9209C14.6586 8.85017 14.5731 8.79441 14.4791 8.75586C14.385 8.7173 14.2843 8.69727 14.1822 8.69727C14.0801 8.69727 13.9793 8.71732 13.8853 8.75586C13.8384 8.7751 13.7934 8.79848 13.7515 8.82617L13.6343 8.9209L11.0474 11.4873L10.688 12.9111L12.1373 12.5479L14.731 9.99219C14.8022 9.92154 14.8578 9.83764 14.8961 9.74609C14.9345 9.65425 14.9546 9.55614 14.9547 9.45703ZM11.316 4.59961C11.3158 4.54918 11.2733 4.50014 11.2105 4.5H7.57477C7.51192 4.50008 7.46952 4.54915 7.4693 4.59961V5.7998C7.4693 5.8504 7.51175 5.90031 7.57477 5.90039H11.2105C11.2735 5.90025 11.316 5.85037 11.316 5.7998V4.59961ZM15.9547 9.45703C15.9546 9.68875 15.9083 9.91802 15.8189 10.1318C15.7295 10.3456 15.5988 10.54 15.4341 10.7031L15.4332 10.7041L12.7427 13.3564C12.6792 13.419 12.5998 13.4637 12.5132 13.4854L10.1197 14.085C9.94912 14.1276 9.7683 14.0776 9.6441 13.9531C9.52001 13.8286 9.47112 13.648 9.51422 13.4775L10.1138 11.1074L10.1343 11.043C10.1596 10.9803 10.1974 10.923 10.2457 10.875L12.9302 8.21094L13.0601 8.09473C13.1946 7.98551 13.3445 7.89608 13.5054 7.83008C13.7201 7.74203 13.9501 7.69727 14.1822 7.69727C14.4143 7.69727 14.6443 7.74203 14.8589 7.83008C15.0736 7.91814 15.2694 8.04775 15.4341 8.21094C15.5988 8.37408 15.7295 8.56848 15.8189 8.78223C15.9083 8.99604 15.9547 9.22532 15.9547 9.45703ZM12.316 4.7002H13.0289C13.3279 4.70058 13.6219 4.77829 13.8814 4.92676C14.1411 5.07538 14.3577 5.28952 14.5084 5.54785C14.6474 5.78641 14.5663 6.09334 14.3277 6.23242C14.0892 6.3712 13.7831 6.29019 13.6441 6.05176C13.5822 5.94568 13.4926 5.85689 13.3843 5.79492C13.3031 5.74846 13.2135 5.71822 13.1207 5.70605L13.0269 5.7002H12.316V5.7998C12.316 6.41182 11.8165 6.90025 11.2105 6.90039H7.57477C6.96868 6.90031 6.4693 6.41186 6.4693 5.7998V5.7002H5.75739C5.56704 5.7002 5.38562 5.7754 5.2525 5.90723C5.11961 6.03888 5.04547 6.21637 5.04547 6.40039V14.7998C5.04547 14.9839 5.11955 15.1613 5.2525 15.293C5.38562 15.4248 5.56704 15.5 5.75739 15.5H13.0279C13.2182 15.5 13.3997 15.4248 13.5328 15.293C13.6657 15.1613 13.7398 14.9838 13.7398 14.7998V14.5C13.7398 14.2239 13.9637 14 14.2398 14C14.5159 14.0001 14.7398 14.2239 14.7398 14.5V14.7998C14.7398 15.2522 14.5584 15.6855 14.2369 16.0039C13.9155 16.3222 13.4803 16.5 13.0279 16.5H5.75739C5.30496 16.5 4.86979 16.3222 4.5484 16.0039C4.22687 15.6855 4.04547 15.2522 4.04547 14.7998V6.40039C4.04547 5.948 4.22693 5.5147 4.5484 5.19629C4.86979 4.87803 5.30496 4.7002 5.75739 4.7002H6.4693V4.59961C6.46951 3.98774 6.96881 3.50008 7.57477 3.5H11.2105C11.8164 3.50014 12.3158 3.98778 12.316 4.59961V4.7002Z" fill="#383C4D"/>
</svg>
