<svg width="20" height="20" viewBox="0 0 20 20" fill="none" xmlns="http://www.w3.org/2000/svg">
<rect width="20" height="20" fill="white"/>
<path d="M12.5013 15.0003L11.12 13.619M10.8355 2.50073C10.7559 2.5 10.6663 2.5 10.5641 2.5H6.83535C5.90193 2.5 5.43487 2.5 5.07835 2.68166C4.76475 2.84145 4.50996 3.09623 4.35017 3.40983C4.16852 3.76635 4.16852 4.23341 4.16852 5.16683V14.8335C4.16852 15.7669 4.16852 16.2334 4.35017 16.5899C4.50996 16.9035 4.76475 17.1587 5.07835 17.3185C5.43452 17.5 5.90102 17.5 6.83263 17.5L13.1711 17.5C14.1027 17.5 14.5685 17.5 14.9247 17.3185C15.2383 17.1587 15.4939 16.9035 15.6537 16.5899C15.8352 16.2337 15.8352 15.7679 15.8352 14.8363V7.7714C15.8352 7.66918 15.8351 7.57961 15.8344 7.5M10.8355 2.50073C11.0734 2.5029 11.2233 2.51172 11.367 2.54623C11.5371 2.58705 11.7001 2.65439 11.8492 2.74577C12.0173 2.84881 12.1617 2.99318 12.4498 3.28125L15.0543 5.88582C15.3426 6.17407 15.4859 6.3178 15.589 6.48599C15.6804 6.63512 15.748 6.79771 15.7888 6.96777C15.8233 7.11149 15.8322 7.26212 15.8344 7.5M10.8355 2.50073L10.8352 4.83351C10.8352 5.76693 10.8352 6.23346 11.0168 6.58998C11.1766 6.90358 11.4314 7.15873 11.745 7.31852C12.1012 7.5 12.5677 7.5 13.4993 7.5H15.8344M9.58518 14.1667C8.43459 14.1667 7.50185 13.2339 7.50185 12.0833C7.50185 10.9327 8.43459 10 9.58518 10C10.7358 10 11.6685 10.9327 11.6685 12.0833C11.6685 13.2339 10.7358 14.1667 9.58518 14.1667Z" stroke="#383C4D" stroke-linecap="round" stroke-linejoin="round"/>
</svg>
