<svg width="20" height="20" viewBox="0 0 20 20" fill="none" xmlns="http://www.w3.org/2000/svg">
<rect width="20" height="20" fill="white"/>
<path d="M16.1665 14.167C16.1665 13.0624 15.2711 12.167 14.1665 12.167C13.0619 12.167 12.1665 13.0624 12.1665 14.167C12.1667 15.2714 13.062 16.167 14.1665 16.167C15.271 16.167 16.1663 15.2714 16.1665 14.167ZM1.1665 15V4.16699C1.1665 2.97418 2.14069 2 3.3335 2H6.61084L6.74463 2.00488C7.05501 2.02571 7.35793 2.11295 7.63232 2.26172C7.94343 2.43039 8.20801 2.6731 8.40381 2.96777H8.40479L9.0874 3.96777L9.09229 3.97461L9.17822 4.08984C9.27112 4.19896 9.38357 4.29066 9.51025 4.35938C9.67918 4.45096 9.86888 4.49901 10.061 4.5H16.6665L16.8804 4.51074C17.3765 4.55994 17.8431 4.77916 18.1987 5.13477C18.605 5.54108 18.8335 6.09243 18.8335 6.66699V10C18.8335 10.276 18.6095 10.4998 18.3335 10.5C18.0574 10.5 17.8335 10.2761 17.8335 10V6.66699C17.8335 6.35765 17.7104 6.06057 17.4917 5.8418C17.3002 5.65034 17.0488 5.53237 16.7817 5.50586L16.6665 5.5H10.0552C9.69845 5.49809 9.3473 5.40831 9.03369 5.23828C8.72018 5.06825 8.45353 4.82322 8.25732 4.52539V4.52441L7.57861 3.53223L7.57373 3.52539C7.46804 3.3649 7.32469 3.23221 7.15576 3.14062C7.029 3.0719 6.89074 3.02808 6.74854 3.00977L6.60596 3H3.3335C2.69297 3 2.1665 3.52647 2.1665 4.16699V15C2.1665 15.3094 2.28951 15.6064 2.5083 15.8252C2.72708 16.0439 3.02415 16.167 3.3335 16.167H9.1665L9.26709 16.1768C9.49502 16.2233 9.6665 16.4253 9.6665 16.667C9.66635 16.9085 9.49489 17.1097 9.26709 17.1562L9.1665 17.167H3.3335C2.75894 17.167 2.20758 16.9385 1.80127 16.5322C1.39494 16.1259 1.1665 15.5746 1.1665 15ZM17.1665 14.167C17.1664 14.8146 16.9579 15.4121 16.6089 15.9023L17.853 17.1465L17.9175 17.2246C18.0458 17.4187 18.0239 17.6826 17.853 17.8535C17.6823 18.0241 17.4191 18.0458 17.2251 17.918L17.146 17.8535L15.9028 16.6104C15.4125 16.9594 14.8142 17.167 14.1665 17.167C12.5098 17.167 11.1667 15.8237 11.1665 14.167C11.1665 12.5101 12.5097 11.167 14.1665 11.167C15.8234 11.167 17.1665 12.5101 17.1665 14.167Z" fill="#383C4D"/>
</svg>
