<svg width="20" height="20" viewBox="0 0 20 20" fill="none" xmlns="http://www.w3.org/2000/svg">
<rect width="20" height="20" fill="white"/>
<path d="M10.2366 3.1028C10.5849 2.98305 10.9978 2.9529 11.3858 3.09373L11.3866 3.09208C12.2013 3.36364 12.757 4.25327 12.5837 5.10448L12.5845 5.10531L12.2341 7.35102L12.2292 7.43346C12.2375 7.61323 12.3684 7.71376 12.5194 7.71376H15.3331C15.975 7.71376 16.5321 7.97378 16.869 8.43101C17.2059 8.88833 17.2832 9.49074 17.0702 10.0963L17.071 10.0972L15.3826 15.2324L15.3818 15.2316C15.2424 15.755 14.8987 16.1922 14.4832 16.4963C14.0602 16.8057 13.5348 17 13.0116 17H10.3388C10.087 17 9.78362 16.9587 9.5012 16.878C9.24196 16.8039 8.94902 16.6811 8.73532 16.4831L6.56298 14.8013L7.07906 14.1335L9.26047 15.8219L9.28108 15.8384L9.30004 15.8574C9.36569 15.923 9.51332 16.0038 9.73369 16.0668C9.94363 16.1267 10.1686 16.1558 10.3388 16.1558H13.0116C13.3325 16.1558 13.6871 16.0335 13.9852 15.8153C14.2829 15.5974 14.4952 15.3061 14.5722 14.9983L14.5755 14.9835L14.5804 14.9686L16.2688 9.83334L16.2721 9.82262C16.4062 9.44694 16.3432 9.13978 16.1897 8.93143C16.0341 8.72033 15.7466 8.55797 15.3331 8.55797H12.5194C11.8479 8.55797 11.2906 7.98614 11.3982 7.2323L11.399 7.22653L11.7502 4.97505L11.7527 4.96186L11.756 4.94867C11.8462 4.54181 11.5624 4.04102 11.1195 3.89341L11.1121 3.89094L11.1047 3.88764C10.9343 3.82383 10.7209 3.82874 10.5111 3.90083C10.2985 3.97393 10.1362 4.10023 10.0569 4.21906L10.056 4.22071L7.1714 8.5118L6.82102 8.27684L6.47064 8.04106L9.35528 3.74997C9.55746 3.44747 9.88713 3.22293 10.2366 3.1028Z" fill="#292D32"/>
<path d="M6.32884 7.57139C6.3288 7.12674 6.23141 6.93774 6.13015 6.84426C6.02057 6.74311 5.80376 6.65712 5.34366 6.65712H4.64043C4.18051 6.65712 3.96356 6.74316 3.85394 6.84426C3.75267 6.93773 3.65529 7.1267 3.65525 7.57139V14.466C3.65525 14.9109 3.75266 15.0996 3.85394 15.1931C3.96352 15.2943 4.18033 15.3803 4.64043 15.3803H5.34366C5.80376 15.3803 6.02057 15.2943 6.13015 15.1931C6.23138 15.0996 6.32884 14.9106 6.32884 14.466V7.57139ZM7.17304 14.466C7.17304 15.0059 7.05902 15.4853 6.70312 15.8139C6.35543 16.1349 5.86846 16.2245 5.34366 16.2245H4.64043C4.11564 16.2245 3.62866 16.1349 3.28097 15.8139C2.92498 15.4853 2.81105 15.006 2.81105 14.466V7.57139C2.81109 7.03149 2.92504 6.55202 3.28097 6.22347C3.62865 5.90264 4.11571 5.81291 4.64043 5.81291H5.34366C5.86846 5.81291 6.35543 5.90253 6.70312 6.22347C7.05906 6.55202 7.173 7.03149 7.17304 7.57139V14.466Z" fill="#292D32"/>
</svg>
