<svg width="20" height="20" viewBox="0 0 20 20" fill="none" xmlns="http://www.w3.org/2000/svg">
<rect width="20" height="20" fill="white"/>
<path d="M16.2076 7.27288L10.8927 10.8417L10.8903 10.8434C10.6567 10.998 10.3911 11.0888 10.1172 11.1091L9.99961 11.114C9.68482 11.1139 9.37646 11.0199 9.10967 10.8434L9.10735 10.8417L3.79244 7.27369V14.1866C3.79258 14.7259 4.2067 15.1628 4.71721 15.1628H15.2828C15.7933 15.1628 16.2074 14.7259 16.2076 14.1866V7.27288ZM16.2076 5.81427C16.2076 5.27481 15.7934 4.83723 15.2828 4.83723H4.71721C4.20661 4.83723 3.79244 5.27481 3.79244 5.81427V6.28112L9.52988 10.1337L9.63977 10.195C9.75266 10.2482 9.8751 10.2767 9.99961 10.2768L10.1234 10.2669C10.2052 10.2548 10.2848 10.2305 10.3602 10.195L10.4693 10.1337L16.2076 6.28112V5.81427ZM17 14.1866C16.9999 15.1883 16.231 16 15.2828 16H4.71721C3.76905 16 3.00014 15.1883 3 14.1866V5.81427C3 4.81243 3.76896 4 4.71721 4H15.2828C16.231 4 17 4.81243 17 5.81427V14.1866Z" fill="#383C4D"/>
</svg>
