<svg width="20" height="20" viewBox="0 0 20 20" fill="none" xmlns="http://www.w3.org/2000/svg">
<rect width="20" height="20" fill="white"/>
<path d="M6.16699 17.5V15C6.16699 14.6906 6.04399 14.3936 5.8252 14.1748C5.63373 13.9833 5.38235 13.8654 5.11523 13.8389L5 13.833H2.5C2.22386 13.833 2 13.6091 2 13.333C2.00018 13.057 2.22397 12.833 2.5 12.833H5L5.21387 12.8438C5.70998 12.8929 6.17662 13.1122 6.53223 13.4678C6.93856 13.8741 7.16699 14.4254 7.16699 15V17.5C7.16699 17.776 6.94298 17.9998 6.66699 18C6.39085 18 6.16699 17.7761 6.16699 17.5ZM12.833 17.5V15C12.833 14.4254 13.0614 13.8741 13.4678 13.4678C13.8741 13.0614 14.4254 12.833 15 12.833H17.5L17.6006 12.8438C17.8284 12.8903 17.9998 13.0915 18 13.333C18 13.5747 17.8285 13.7767 17.6006 13.8232L17.5 13.833H15C14.6906 13.833 14.3936 13.956 14.1748 14.1748C13.956 14.3936 13.833 14.6906 13.833 15V17.5C13.833 17.7761 13.6091 18 13.333 18C13.057 17.9998 12.833 17.776 12.833 17.5ZM6.16699 5V2.5C6.16699 2.22386 6.39085 2 6.66699 2C6.94299 2.00018 7.16699 2.22397 7.16699 2.5V5L7.15625 5.21387C7.10706 5.70998 6.88784 6.17662 6.53223 6.53223C6.17662 6.88784 5.70998 7.10706 5.21387 7.15625L5 7.16699H2.5C2.22397 7.16699 2.00018 6.94299 2 6.66699C2 6.39085 2.22386 6.16699 2.5 6.16699H5L5.11523 6.16113C5.38235 6.13463 5.63373 6.01666 5.8252 5.8252C6.01666 5.63373 6.13463 5.38235 6.16113 5.11523L6.16699 5ZM12.833 5V2.5C12.833 2.22397 13.057 2.00018 13.333 2C13.6091 2 13.833 2.22386 13.833 2.5V5L13.8389 5.11523C13.8654 5.38235 13.9833 5.63373 14.1748 5.8252C14.3936 6.04399 14.6906 6.16699 15 6.16699H17.5C17.7761 6.16699 18 6.39085 18 6.66699C17.9998 6.94298 17.776 7.16699 17.5 7.16699H15C14.4254 7.16699 13.8741 6.93856 13.4678 6.53223C13.1122 6.17662 12.8929 5.70998 12.8438 5.21387L12.833 5Z" fill="#383C4D"/>
</svg>
