<svg width="20" height="20" viewBox="0 0 20 20" fill="none" xmlns="http://www.w3.org/2000/svg">
<rect width="20" height="20" fill="white"/>
<path d="M17.1465 2.14648C17.3417 1.95122 17.6582 1.95122 17.8535 2.14648C18.0488 2.34175 18.0488 2.65825 17.8535 2.85352L12.874 7.83301H16.667L16.7676 7.84375C16.9952 7.89043 17.1668 8.0916 17.167 8.33301C17.167 8.57459 16.9953 8.77657 16.7676 8.82324L16.667 8.83301H11.667C11.3908 8.83301 11.167 8.60915 11.167 8.33301V3.33301C11.1672 3.05702 11.391 2.83301 11.667 2.83301C11.9429 2.83318 12.1668 3.05712 12.167 3.33301V7.12598L17.1465 2.14648ZM8.833 16.667C8.83282 16.943 8.60903 17.167 8.333 17.167C8.05712 17.1668 7.83318 16.9429 7.833 16.667V12.874L2.85351 17.8535C2.65825 18.0488 2.34174 18.0488 2.14648 17.8535C1.95121 17.6583 1.95122 17.3417 2.14648 17.1465L7.12597 12.167H3.333C3.05712 12.1668 2.83318 11.9429 2.833 11.667C2.833 11.391 3.05701 11.1672 3.333 11.167H8.333C8.60914 11.167 8.833 11.3909 8.833 11.667V16.667Z" fill="#383C4D"/>
</svg>
