<svg width="20" height="20" viewBox="0 0 20 20" fill="none" xmlns="http://www.w3.org/2000/svg">
<rect width="20" height="20" transform="translate(20 20) rotate(180)" fill="white"/>
<path d="M3.06667 15.8073C3.06667 16.4291 3.57088 16.9333 4.19271 16.9333L11.9552 16.9333L11.9552 3.06667L4.19271 3.06667C3.57088 3.06667 3.06667 3.57088 3.06667 4.19271L3.06667 15.8073ZM16.9333 4.19271C16.9333 3.57088 16.4291 3.06667 15.8073 3.06667L13.0219 3.06667L13.0219 16.9333L15.8073 16.9333C16.4291 16.9333 16.9333 16.4291 16.9333 15.8073L16.9333 4.19271ZM2 4.19271C2 2.98177 2.98177 2 4.19271 2L15.8073 2C17.0182 2 18 2.98177 18 4.19271L18 15.8073C18 17.0182 17.0182 18 15.8073 18L4.19271 18C2.98177 18 2 17.0182 2 15.8073L2 4.19271Z" fill="#383C4D"/>
</svg>
