<svg width="20" height="20" viewBox="0 0 20 20" fill="none" xmlns="http://www.w3.org/2000/svg">
<rect width="20" height="20" fill="white"/>
<path d="M16.5 8.39949C16.5 6.60916 16.1777 5.60541 15.6553 5.02449C15.2146 4.53453 14.56 4.26855 13.5918 4.15828C13.5651 4.4278 13.5 4.71857 13.3359 4.97176C13.0062 5.48043 12.4044 5.70024 11.5557 5.70027H8.44434C8.09893 5.70027 7.53583 5.71667 7.0918 5.41219C6.71121 5.15102 6.50097 4.72898 6.42383 4.15633C5.44768 4.26584 4.78797 4.5339 4.34473 5.02742C3.82201 5.60958 3.5 6.61372 3.5 8.39949V13.1993C3.5 14.7921 3.70227 15.8249 4.25586 16.4757C4.79157 17.1054 5.76909 17.5001 7.66699 17.5001H12.333C14.2309 17.5001 15.2084 17.1054 15.7441 16.4757C16.2977 15.8249 16.5 14.7921 16.5 13.1993V8.39949ZM10.2959 12.8595L10.3965 12.8692C10.6242 12.9159 10.7959 13.1179 10.7959 13.3595C10.7959 13.601 10.6242 13.803 10.3965 13.8497L10.2959 13.8595H6.88867C6.61259 13.8594 6.38867 13.6356 6.38867 13.3595C6.38867 13.0834 6.61259 12.8595 6.88867 12.8595H10.2959ZM12.333 9.66023L12.4336 9.67C12.6617 9.71644 12.833 9.91844 12.833 10.1602C12.833 10.402 12.6617 10.604 12.4336 10.6505L12.333 10.6602H6.88867C6.61259 10.6602 6.38867 10.4363 6.38867 10.1602C6.38867 9.88413 6.61259 9.6603 6.88867 9.66023H12.333ZM8.44434 2.50008C8.01197 2.50008 7.79652 2.51687 7.65723 2.61238C7.56896 2.67305 7.38874 2.86204 7.38867 3.59969C7.38867 4.33784 7.56896 4.52733 7.65723 4.58797C7.79652 4.68349 8.01197 4.70027 8.44434 4.70027H11.5557C12.2622 4.70024 12.4379 4.5191 12.4971 4.42781C12.5952 4.27617 12.6113 4.04222 12.6113 3.59969C12.6113 2.86127 12.43 2.67284 12.3418 2.61238C12.2025 2.51704 11.9876 2.50008 11.5557 2.50008H8.44434ZM17.5 13.1993C17.5 14.8064 17.3132 16.1739 16.5059 17.1231C15.6805 18.0934 14.324 18.5001 12.333 18.5001H7.66699C5.67602 18.5001 4.31954 18.0934 3.49414 17.1231C2.68682 16.1739 2.5 14.8064 2.5 13.1993V8.39949C2.5 6.53741 2.82745 5.22136 3.60156 4.35945C4.2952 3.58719 5.26896 3.26635 6.41211 3.15145C6.47665 2.52393 6.68781 2.06541 7.0918 1.78816C7.53583 1.48368 8.09893 1.50008 8.44434 1.50008H11.5557C11.9011 1.50007 12.4633 1.4838 12.9072 1.78816C13.3115 2.06536 13.5214 2.52379 13.5859 3.15145C14.7292 3.26574 15.7042 3.58386 16.3984 4.35555C17.1729 5.21666 17.5 6.53374 17.5 8.39949V13.1993Z" fill="#292D32"/>
</svg>
