<svg width="20" height="20" viewBox="0 0 20 20" fill="none" xmlns="http://www.w3.org/2000/svg">
<rect width="20" height="20" fill="white"/>
<path d="M4.57186 2.48114C5.88937 1.71314 7.61305 1.8726 9.37186 2.89989L14.7135 6.02905L15.0344 6.22593C16.593 7.2346 17.4666 8.57672 17.4666 10.0103C17.4665 11.5393 16.4725 12.9642 14.7135 13.9915L14.7125 13.9905L9.37186 17.1197L9.36769 17.1228C7.60893 18.1314 5.88657 18.2829 4.57082 17.5124C3.25625 16.7425 2.53336 15.1608 2.53333 13.1103V6.87489C2.53334 4.83016 3.25643 3.24798 4.57186 2.48114ZM3.59999 13.1103C3.60003 14.9362 4.23574 16.081 5.10936 16.5926C5.92726 17.0716 7.11733 17.0915 8.5479 16.3551L8.83748 16.1967L14.175 13.0707L14.4573 12.8968C15.8153 12.0187 16.3999 10.9685 16.4 10.0103C16.4 9.05204 15.8152 8.0019 14.4573 7.12384L14.175 6.94989L8.83332 3.82072C7.2737 2.90983 5.97903 2.89439 5.10832 3.40197C4.23562 3.91083 3.6 5.05489 3.59999 6.87489V13.1103Z" fill="#383C4D"/>
</svg>
