<svg width="20" height="20" viewBox="0 0 20 20" fill="none" xmlns="http://www.w3.org/2000/svg">
<rect width="20" height="20" fill="white"/>
<path d="M2 11.6667C2 9.08934 4.08966 6.99967 6.66699 6.99967H16.293L13.8135 4.52018L13.749 4.44206C13.6207 4.24796 13.6426 3.98406 13.8135 3.81315C13.9842 3.64257 14.2474 3.62091 14.4414 3.7487L14.5205 3.81315L17.8535 7.14616C17.9472 7.23985 17.9999 7.36718 18 7.49967C18 7.63221 17.9472 7.75944 17.8535 7.85319L14.5205 11.1872C14.3254 11.3823 14.0088 11.3821 13.8135 11.1872C13.6182 10.9919 13.6182 10.6754 13.8135 10.4801L16.293 7.99967H6.66699C4.64195 7.99967 3 9.64162 3 11.6667C3 13.6917 4.64195 15.3337 6.66699 15.3337H10.833L10.9346 15.3434C11.1622 15.3902 11.333 15.5922 11.333 15.8337C11.3329 16.075 11.1621 16.2761 10.9346 16.3229L10.833 16.3337H6.66699C4.08966 16.3337 2 14.244 2 11.6667Z" fill="#383C4D"/>
</svg>
