<svg width="20" height="20" viewBox="0 0 20 20" fill="none" xmlns="http://www.w3.org/2000/svg">
<rect width="20" height="20" fill="white"/>
<path d="M9.5 3.5C11.3309 3.5 13.0837 4.18075 14.4473 5.37305L14.7139 5.61816L14.7217 5.625L15.5 6.40332V4C15.5 3.72386 15.7239 3.5 16 3.5C16.2417 3.5 16.4437 3.67145 16.4902 3.89941L16.5 4V7.61133C16.4999 7.74386 16.4472 7.87113 16.3535 7.96484C16.2598 8.05854 16.1326 8.11133 16 8.11133H12.3887C12.1127 8.11121 11.8888 7.8873 11.8887 7.61133C11.8887 7.33526 12.1126 7.11144 12.3887 7.11133H14.7939L14.0215 6.33887L13.7881 6.12598C12.6017 5.0887 11.0816 4.5 9.5 4.5C8.31351 4.5 7.15358 4.85166 6.16699 5.51074C5.1803 6.17003 4.41116 7.10775 3.95703 8.2041C3.50293 9.30044 3.38373 10.507 3.61524 11.6709C3.84679 12.8347 4.41878 13.9032 5.25781 14.7422C6.09685 15.5812 7.16535 16.1532 8.3291 16.3848C9.49297 16.6163 10.6996 16.4971 11.7959 16.043C12.8923 15.5888 13.83 14.8197 14.4893 13.833C15.1483 12.8464 15.5 11.6865 15.5 10.5C15.5 10.2239 15.7239 10 16 10C16.2761 10 16.5 10.2239 16.5 10.5C16.5 11.8844 16.0894 13.2376 15.3203 14.3887C14.5512 15.5398 13.4578 16.437 12.1787 16.9668C10.8997 17.4966 9.49253 17.6352 8.13477 17.3652C6.7769 17.0951 5.52877 16.4292 4.54981 15.4502C3.57084 14.4712 2.90486 13.2231 2.63477 11.8652C2.36476 10.5075 2.50344 9.10027 3.03321 7.82129C3.56302 6.54223 4.46021 5.44884 5.61133 4.67969C6.76242 3.91062 8.11563 3.5 9.5 3.5Z" fill="#383C4D"/>
</svg>
