<svg width="20" height="20" viewBox="0 0 20 20" fill="none" xmlns="http://www.w3.org/2000/svg">
<rect width="20" height="20" fill="white"/>
<path d="M13.3628 3.22003C14.7718 2.81547 16.0001 2.95959 16.7684 3.72894C17.5872 4.54894 17.6969 5.89278 17.1922 7.41944L17.1913 7.42123L15.0275 13.9116C14.6546 15.0324 14.2112 15.909 13.7113 16.5144C13.2126 17.1184 12.6151 17.5 11.9472 17.5C11.2792 17.5 10.6817 17.1183 10.183 16.5144C9.74562 15.9847 9.35177 15.2471 9.01017 14.3202L8.86681 13.9116L8.29698 12.203L6.58747 11.6332V11.6323C5.46725 11.2595 4.59082 10.817 3.98557 10.3179C3.38169 9.81991 3.00002 9.22326 3 8.55553C3 7.88803 3.38118 7.29108 3.98467 6.79226C4.58992 6.29208 5.46679 5.84737 6.58747 5.4725V5.4716L13.0788 3.30873L13.3628 3.22003ZM16.1188 4.37762C15.6882 3.94644 14.8663 3.74304 13.6235 4.09987L13.3691 4.17871L6.87776 6.34159L6.87866 6.34248C5.81668 6.69771 5.05589 7.09748 4.56974 7.49918C4.08201 7.90224 3.91747 8.26458 3.91747 8.55553C3.9175 8.84631 4.08144 9.20812 4.56884 9.61009C4.99404 9.96073 5.62979 10.3094 6.49339 10.6279L6.87776 10.7623V10.7632L8.80499 11.4047L8.90176 11.4504C8.99179 11.5063 9.06107 11.5924 9.09529 11.695L9.7368 13.6222L9.87209 14.0066C10.1906 14.8699 10.5398 15.5051 10.8908 15.9303C11.2933 16.4177 11.6556 16.5825 11.9472 16.5825C12.2387 16.5825 12.601 16.4177 13.0035 15.9303C13.4048 15.4443 13.8042 14.6841 14.1575 13.6222L16.3204 7.13183L16.3992 6.87738C16.7533 5.63386 16.5499 4.80939 16.1188 4.37762Z" fill="#383C4D"/>
<path d="M9.1302 11.835C8.9513 12.0144 8.66002 12.0148 8.48062 11.8359C8.30152 11.657 8.30114 11.3665 8.47973 11.1872L9.1302 11.835ZM11.2895 8.3837C11.4672 8.26609 11.7087 8.28493 11.8656 8.44105C12.045 8.61994 12.0454 8.91123 11.8665 9.09063L9.1302 11.835L8.80497 11.5106L8.47973 11.1872L11.2169 8.44194L11.2895 8.3837Z" fill="#383C4D"/>
</svg>
