<svg width="20" height="20" viewBox="0 0 20 20" fill="none" xmlns="http://www.w3.org/2000/svg">
<rect width="20" height="20" fill="white"/>
<path d="M7.35351 4.4453C8.11629 1.7652 12.166 1.85436 12.71 4.71288L12.7383 4.80565C12.8287 5.00969 13.074 5.13082 13.3144 5.04784L13.581 4.96776C14.9027 4.63686 16.0498 5.2871 16.6143 6.24706C17.1795 7.2085 17.1806 8.519 16.2227 9.48144L16.0185 9.66894C15.8099 9.84406 15.8099 10.1559 16.0185 10.331L16.2227 10.5185C17.1806 11.481 17.1795 12.7915 16.6143 13.7529C16.0498 14.7129 14.9027 15.3631 13.581 15.0322L13.3144 14.9521C13.074 14.8691 12.8287 14.9903 12.7383 15.1943L12.71 15.2871C12.1484 18.2377 7.85158 18.2377 7.29003 15.2871C7.24711 15.0615 7.02679 14.9013 6.78808 14.9287L6.68554 14.9521C5.25292 15.4477 3.98777 14.7769 3.38574 13.7529C2.78284 12.7275 2.82163 11.3048 3.98144 10.331L4.0498 10.2588C4.16695 10.1052 4.16694 9.8948 4.0498 9.7412L3.98144 9.66894C2.82162 8.69523 2.78283 7.27251 3.38574 6.24706C3.98777 5.22312 5.25292 4.55231 6.68554 5.04784L6.78808 5.07128C7.02678 5.09866 7.2471 4.93849 7.29003 4.71288L7.35351 4.4453ZM11.7275 4.90038C11.3834 3.09206 8.79662 3.03507 8.31249 4.73046L8.27246 4.90038C8.11589 5.72177 7.30217 6.21545 6.51562 6.0371L6.35839 5.99218C5.43066 5.67136 4.6383 6.08848 4.24706 6.7539C3.85698 7.41766 3.88859 8.28581 4.62402 8.90331L4.74511 9.01659C5.26899 9.56753 5.269 10.4325 4.74511 10.9834L4.62402 11.0967C3.8886 11.7142 3.85699 12.5823 4.24706 13.2461C4.6383 13.9115 5.43066 14.3286 6.35839 14.0078L6.51562 13.9629C7.30217 13.7845 8.1159 14.2782 8.27246 15.0996C8.62764 16.9663 11.3724 16.9662 11.7275 15.0996L11.7676 14.9404C12.0085 14.1637 12.8615 13.7379 13.6416 14.0078L13.8135 14.0596C14.6665 14.2759 15.3861 13.87 15.7529 13.2461C16.1188 12.6236 16.1135 11.8215 15.5049 11.2148L15.376 11.0967C14.6912 10.5219 14.6912 9.47808 15.376 8.90331L15.5049 8.78417C16.113 8.17757 16.1187 7.37624 15.7529 6.7539C15.3861 6.12997 14.6665 5.72404 13.8135 5.94042L13.6416 5.99218C12.8615 6.26201 12.0086 5.83623 11.7676 5.05956L11.7275 4.90038ZM11.4492 10.001C11.4492 9.23248 10.8099 8.59188 9.99999 8.59179C9.19001 8.59179 8.55078 9.23243 8.55078 10.001C8.55083 10.7695 9.19004 11.4101 9.99999 11.4101C10.8099 11.4101 11.4492 10.7694 11.4492 10.001ZM12.4492 10.001C12.4492 11.341 11.3426 12.4101 9.99999 12.4101C8.65731 12.4101 7.55083 11.3411 7.55078 10.001C7.55078 8.66078 8.65728 7.59179 9.99999 7.59179C11.3426 7.59188 12.4492 8.66084 12.4492 10.001Z" fill="#383C4D"/>
</svg>
