<svg width="20" height="20" viewBox="0 0 20 20" fill="none" xmlns="http://www.w3.org/2000/svg">
<rect width="20" height="20" fill="white"/>
<path d="M9.64743 3.64551C9.84245 3.45164 10.1575 3.45164 10.3525 3.64551L16.8525 10.1074C16.9959 10.2502 17.0391 10.4653 16.9619 10.6523C16.8846 10.8394 16.7024 10.9619 16.5 10.9619H13.2861V16C13.2861 16.276 13.0621 16.4998 12.7861 16.5H7.21384C6.93789 16.4998 6.71384 16.276 6.71384 16V10.9619H3.49997C3.29756 10.9619 3.11533 10.8394 3.03806 10.6523C2.96089 10.4653 3.00403 10.2502 3.14743 10.1074L9.64743 3.64551ZM4.71189 9.96191H7.21384C7.48998 9.96191 7.71384 10.1858 7.71384 10.4619V15.5H12.2861V10.4619C12.2861 10.1858 12.51 9.96191 12.7861 9.96191H15.2881L9.99997 4.7041L4.71189 9.96191Z" fill="#3E4054"/>
</svg>
