<svg width="20" height="20" viewBox="0 0 20 20" fill="none" xmlns="http://www.w3.org/2000/svg">
<rect width="20" height="20" fill="white"/>
<path d="M15.5 5.33301C15.4998 4.87303 15.127 4.50018 14.667 4.5H5.33301C4.87303 4.50018 4.50018 4.87303 4.5 5.33301V14.667C4.50018 15.127 4.87303 15.4998 5.33301 15.5H14.667C15.127 15.4998 15.4998 15.127 15.5 14.667V5.33301ZM16.5 14.667C16.4998 15.6793 15.6793 16.4998 14.667 16.5H5.33301C4.32074 16.4998 3.50018 15.6793 3.5 14.667V5.33301C3.50018 4.32074 4.32074 3.50018 5.33301 3.5H14.667C15.6793 3.50018 16.4998 4.32074 16.5 5.33301V14.667Z" fill="#3E4054"/>
<path d="M15.8438 5.84375L15.8437 6.84375L4.07812 6.84375L4.07812 5.84375L15.8438 5.84375Z" fill="#3E4054"/>
<path d="M10.4844 6.35938V10.251L11.6738 11.4883L11.3408 11.835L10.4844 12.7246V15.9102H9.48438V12.3223L9.62402 12.1777L10.2861 11.4883L9.62402 10.7998L9.48438 10.6543V6.35938H10.4844Z" fill="#3E4054"/>
</svg>
