<svg width="20" height="20" viewBox="0 0 20 20" fill="none" xmlns="http://www.w3.org/2000/svg">
<rect width="20" height="20" fill="white"/>
<path d="M17 4.16699C17 3.52266 16.4773 3 15.833 3H10.5V17H15.833C16.4773 17 17 16.4773 17 15.833V4.16699ZM3 15.833C3 16.4773 3.52266 17 4.16699 17H9.5V3H4.16699C3.52266 3 3 3.52266 3 4.16699V15.833ZM18 15.833C18 17.0296 17.0296 18 15.833 18H4.16699C2.97038 18 2 17.0296 2 15.833V4.16699C2 2.97038 2.97038 2 4.16699 2H15.833C17.0296 2 18 2.97038 18 4.16699V15.833Z" fill="#383C4D"/>
</svg>
