<svg width="20" height="20" viewBox="0 0 20 20" fill="none" xmlns="http://www.w3.org/2000/svg">
<rect width="20" height="20" fill="white"/>
<path d="M14.6858 17.7783V9.22266C14.6858 8.94651 14.9096 8.72266 15.1858 8.72266C15.4619 8.72266 15.6858 8.94651 15.6858 9.22266V17.7783C15.6857 18.0544 15.4619 18.2783 15.1858 18.2783C14.9097 18.2783 14.6858 18.0544 14.6858 17.7783Z" fill="#5D6481"/>
<path d="M14.6853 6.11133V2.22266C14.6853 1.94651 14.9092 1.72266 15.1853 1.72266C15.4614 1.72266 15.6853 1.94651 15.6853 2.22266V6.11133C15.6853 6.38747 15.4614 6.61133 15.1853 6.61133C14.9092 6.61133 14.6853 6.38747 14.6853 6.11133Z" fill="#5D6481"/>
<path d="M9.50024 17.7773V13.8887C9.50024 13.6125 9.7241 13.3887 10.0002 13.3887C10.2764 13.3887 10.5002 13.6125 10.5002 13.8887V17.7773C10.5002 18.0535 10.2764 18.2773 10.0002 18.2773C9.7241 18.2773 9.50024 18.0535 9.50024 17.7773Z" fill="#5D6481"/>
<path d="M9.50024 10.7783V2.22266C9.50024 1.94651 9.7241 1.72266 10.0002 1.72266C10.2764 1.72266 10.5002 1.94651 10.5002 2.22266V10.7783C10.5002 11.0544 10.2764 11.2783 10.0002 11.2783C9.72414 11.2783 9.5003 11.0544 9.50024 10.7783Z" fill="#5D6481"/>
<path d="M4.3147 17.7783V9.22266C4.3147 8.94651 4.53855 8.72266 4.8147 8.72266C5.09084 8.72266 5.3147 8.94651 5.3147 9.22266V17.7783C5.31464 18.0544 5.0908 18.2783 4.8147 18.2783C4.53859 18.2783 4.31476 18.0544 4.3147 17.7783Z" fill="#5D6481"/>
<path d="M4.3147 6.11133V2.22266C4.3147 1.94651 4.53855 1.72266 4.8147 1.72266C5.09084 1.72266 5.3147 1.94651 5.3147 2.22266V6.11133C5.3147 6.38747 5.09084 6.61133 4.8147 6.61133C4.53855 6.61133 4.3147 6.38747 4.3147 6.11133Z" fill="#5D6481"/>
<path d="M6.29639 8.72266L6.39697 8.73242C6.62497 8.77892 6.79639 8.98092 6.79639 9.22266C6.79639 9.46439 6.62497 9.66639 6.39697 9.71289L6.29639 9.72266H3.3335C3.05735 9.72266 2.8335 9.4988 2.8335 9.22266C2.8335 8.94651 3.05735 8.72266 3.3335 8.72266H6.29639Z" fill="#5D6481"/>
<path d="M16.666 8.72266L16.7666 8.73242C16.9946 8.77892 17.166 8.98092 17.166 9.22266C17.166 9.46439 16.9946 9.66639 16.7666 9.71289L16.666 9.72266H13.7031C13.427 9.72266 13.2031 9.4988 13.2031 9.22266C13.2031 8.94651 13.427 8.72266 13.7031 8.72266H16.666Z" fill="#5D6481"/>
<path d="M11.4819 10.2793L11.5825 10.2891C11.8105 10.3356 11.9819 10.5376 11.9819 10.7793C11.9819 11.021 11.8105 11.223 11.5825 11.2695L11.4819 11.2793H8.51904C8.2429 11.2793 8.01904 11.0554 8.01904 10.7793C8.01904 10.5032 8.2429 10.2793 8.51904 10.2793H11.4819Z" fill="#5D6481"/>
</svg>
