<svg width="20" height="20" viewBox="0 0 20 20" fill="none" xmlns="http://www.w3.org/2000/svg">
<rect width="20" height="20" fill="white"/>
<path d="M8.05198 8.7013H10M10 8.7013H11.9481M10 8.7013V12.5974M4.80523 7.40259V12.5974M12.5974 4.80519L7.40263 4.80519M15.1948 7.40259V12.5974M12.5974 15.1948H7.40263M3.89614 6.75324H5.71432C6.07799 6.75324 6.25983 6.75324 6.39873 6.68247C6.52091 6.62021 6.62025 6.52087 6.68251 6.39869C6.75328 6.25979 6.75328 6.07795 6.75328 5.71428V3.8961C6.75328 3.53243 6.75328 3.35059 6.68251 3.21169C6.62025 3.08951 6.52091 2.99017 6.39873 2.92791C6.25983 2.85714 6.07799 2.85714 5.71432 2.85714H3.89614C3.53247 2.85714 3.35063 2.85714 3.21173 2.92791C3.08955 2.99017 2.99021 3.08951 2.92795 3.21169C2.85718 3.35059 2.85718 3.53243 2.85718 3.8961V5.71428C2.85718 6.07795 2.85718 6.25979 2.92795 6.39869C2.99021 6.52087 3.08955 6.62021 3.21173 6.68247C3.35063 6.75324 3.53247 6.75324 3.89614 6.75324ZM3.89614 17.1429H5.71432C6.07799 17.1429 6.25983 17.1429 6.39873 17.0721C6.52091 17.0098 6.62025 16.9105 6.68251 16.7883C6.75328 16.6494 6.75328 16.4676 6.75328 16.1039V14.2857C6.75328 13.922 6.75328 13.7402 6.68251 13.6013C6.62025 13.4791 6.52091 13.3798 6.39873 13.3175C6.25983 13.2467 6.07799 13.2467 5.71432 13.2467H3.89614C3.53247 13.2467 3.35063 13.2467 3.21173 13.3175C3.08955 13.3798 2.99021 13.4791 2.92795 13.6013C2.85718 13.7402 2.85718 13.922 2.85718 14.2857V16.1039C2.85718 16.4676 2.85718 16.6494 2.92795 16.7883C2.99021 16.9105 3.08955 17.0098 3.21173 17.0721C3.35063 17.1429 3.53247 17.1429 3.89614 17.1429ZM14.2857 6.75324H16.1039C16.4676 6.75324 16.6494 6.75324 16.7883 6.68247C16.9105 6.62021 17.0099 6.52087 17.0721 6.39869C17.1429 6.25979 17.1429 6.07795 17.1429 5.71428V3.8961C17.1429 3.53243 17.1429 3.35059 17.0721 3.21169C17.0099 3.08951 16.9105 2.99017 16.7883 2.92791C16.6494 2.85714 16.4676 2.85714 16.1039 2.85714H14.2857C13.9221 2.85714 13.7402 2.85714 13.6013 2.92791C13.4792 2.99017 13.3798 3.08951 13.3176 3.21169C13.2468 3.35059 13.2468 3.53243 13.2468 3.8961V5.71428C13.2468 6.07795 13.2468 6.25979 13.3176 6.39869C13.3798 6.52087 13.4792 6.62021 13.6013 6.68247C13.7402 6.75324 13.9221 6.75324 14.2857 6.75324ZM14.2857 17.1429H16.1039C16.4676 17.1429 16.6494 17.1429 16.7883 17.0721C16.9105 17.0098 17.0099 16.9105 17.0721 16.7883C17.1429 16.6494 17.1429 16.4676 17.1429 16.1039V14.2857C17.1429 13.922 17.1429 13.7402 17.0721 13.6013C17.0099 13.4791 16.9105 13.3798 16.7883 13.3175C16.6494 13.2467 16.4676 13.2467 16.1039 13.2467H14.2857C13.9221 13.2467 13.7402 13.2467 13.6013 13.3175C13.4792 13.3798 13.3798 13.4791 13.3176 13.6013C13.2468 13.7402 13.2468 13.922 13.2468 14.2857V16.1039C13.2468 16.4676 13.2468 16.6494 13.3176 16.7883C13.3798 16.9105 13.4792 17.0098 13.6013 17.0721C13.7402 17.1429 13.9221 17.1429 14.2857 17.1429Z" stroke="#383C4D" stroke-linecap="round"/>
</svg>
