<svg width="20" height="20" viewBox="0 0 20 20" fill="none" xmlns="http://www.w3.org/2000/svg">
<rect width="20" height="20" fill="white"/>
<path d="M17 11.6667C17 9.64162 15.3581 7.99967 13.333 7.99967H3.70703L6.18653 10.4801L6.25098 10.5583C6.37909 10.7523 6.35737 11.0163 6.18653 11.1872C6.0157 11.3577 5.75254 11.3786 5.5586 11.2507L5.4795 11.1872L2.14649 7.85319C1.95139 7.65791 1.95128 7.34137 2.14649 7.14616L5.4795 3.81315C5.6747 3.61794 5.99125 3.61805 6.18653 3.81315C6.38179 4.00841 6.38179 4.32492 6.18653 4.52018L3.70703 6.99967H13.333C15.9103 6.99967 18 9.08934 18 11.6667C18 14.244 15.9103 16.3337 13.333 16.3337H9.167C8.89096 16.3337 8.66717 16.1097 8.667 15.8337C8.667 15.5575 8.89085 15.3337 9.167 15.3337H13.333C15.3581 15.3337 17 13.6917 17 11.6667Z" fill="#383C4D"/>
</svg>
