<svg width="20" height="20" viewBox="0 0 20 20" fill="none" xmlns="http://www.w3.org/2000/svg">
<rect width="20" height="20" fill="white"/>
<path d="M16.8403 5.58914C16.8402 5.13446 16.7406 4.9412 16.6371 4.84561C16.525 4.74218 16.3033 4.65425 15.8329 4.65425H15.1138C14.6435 4.65425 14.4217 4.74223 14.3096 4.84561C14.206 4.94119 14.1064 5.13442 14.1064 5.58914V12.6392C14.1064 13.0941 14.206 13.2871 14.3096 13.3827C14.4216 13.4861 14.6433 13.5741 15.1138 13.5741H15.8329C16.3033 13.5741 16.525 13.4861 16.6371 13.3827C16.7406 13.287 16.8403 13.0938 16.8403 12.6392V5.58914ZM17.7035 12.6392C17.7035 13.1913 17.5869 13.6815 17.223 14.0175C16.8674 14.3457 16.3695 14.4373 15.8329 14.4373H15.1138C14.5772 14.4373 14.0792 14.3456 13.7237 14.0175C13.3597 13.6815 13.2432 13.1914 13.2432 12.6392V5.58914C13.2432 5.03707 13.3597 4.54679 13.7237 4.21083C14.0792 3.88277 14.5772 3.79102 15.1138 3.79102H15.8329C16.3695 3.79102 16.8674 3.88265 17.223 4.21083C17.5869 4.54679 17.7034 5.03707 17.7035 5.58914V12.6392Z" fill="#383C4D"/>
<path d="M10.0062 3C10.2636 3.00005 10.5732 3.0423 10.8619 3.12476C11.1266 3.20042 11.4257 3.32576 11.6442 3.52772L13.8672 5.24829L13.6025 5.5897L13.3386 5.93112L11.108 4.20465L11.087 4.18779L11.0676 4.1684C11.0005 4.1013 10.8501 4.01865 10.625 3.95428C10.4104 3.89297 10.1803 3.86328 10.0062 3.86323H7.27237C6.94433 3.86323 6.5824 3.9885 6.27762 4.21139C5.97312 4.4342 5.75529 4.73203 5.67656 5.04681L5.67319 5.06198L5.66813 5.07716L3.94166 10.3282L3.93829 10.3392C3.8012 10.7233 3.86567 11.0374 4.02259 11.2505C4.18165 11.4663 4.47573 11.6323 4.89847 11.6323H7.77564C8.46231 11.6323 9.03207 12.2171 8.92212 12.9879L8.92128 12.9938L8.56216 15.296L8.5571 15.323C8.47049 15.7132 8.71961 16.1879 9.12444 16.37L9.20706 16.402L9.21464 16.4046L9.22223 16.408C9.39649 16.4732 9.61461 16.4682 9.82919 16.3945C10.0466 16.3197 10.2125 16.1906 10.2937 16.0691L10.2954 16.0674L13.2442 11.6796L13.6025 11.9198L13.9607 12.1609L11.0119 16.547L11.0128 16.5479C10.8061 16.8579 10.4678 17.0883 10.1099 17.2113C9.75351 17.3338 9.3308 17.3641 8.93392 17.2198V17.2214C8.10075 16.9436 7.5314 16.0334 7.70904 15.1628L8.06816 12.8657C8.1016 12.6298 7.95198 12.4956 7.77564 12.4956H4.89847C4.24218 12.4956 3.67246 12.2297 3.32796 11.7622C2.98155 11.2919 2.90239 10.6711 3.12479 10.0483L4.84789 4.8074C4.99045 4.27246 5.34282 3.82589 5.76761 3.51507C6.2001 3.19862 6.7373 3 7.27237 3H10.0062Z" fill="#383C4D"/>
</svg>
