<svg width="20" height="20" viewBox="0 0 20 20" fill="none" xmlns="http://www.w3.org/2000/svg">
<rect width="20" height="20" fill="white"/>
<path d="M9.41237 2.23254C10.349 1.89254 11.4663 1.94421 12.7592 2.26587L12.7582 2.26691L14.0061 2.57212L14.3051 2.65024C15.7753 3.05476 16.8581 3.69111 17.4634 4.71691C18.1049 5.80453 18.1309 7.19811 17.754 8.88879L17.0218 12.1742C16.6986 13.6343 16.1983 14.7599 15.3968 15.4815C14.6155 16.1846 13.6228 16.4379 12.4436 16.3534C11.9574 16.6709 11.3805 16.9317 10.7197 17.1586L10.7207 17.1596L9.53946 17.568L9.53633 17.569C8.00151 18.0895 6.69158 18.1825 5.6155 17.6034C4.54701 17.0282 3.85964 15.8698 3.36445 14.2669L3.36341 14.2659L2.40716 11.1617L2.91758 11.0044L2.40716 11.1607C1.91474 9.55394 1.83102 8.20087 2.36758 7.09191C2.90776 5.97558 4.00817 5.24532 5.54779 4.72316L6.72487 4.31587L6.73112 4.31379L7.203 4.16691C7.27234 4.14728 7.34133 4.12792 7.41029 4.11066C7.88234 3.19622 8.52886 2.55332 9.41237 2.23254ZM5.89362 5.73254L5.8905 5.73358C4.4639 6.2174 3.68522 6.8161 3.32695 7.5565C2.96541 8.30401 2.96339 9.33561 3.42695 10.8482L4.3832 13.9523L4.56341 14.4888C4.99687 15.6674 5.51403 16.3378 6.12175 16.6648C6.80884 17.0344 7.76284 17.0448 9.19362 16.5596L10.3717 16.1513H10.3728L10.6738 16.0388L9.70716 15.7971V15.7982C8.092 15.3948 6.90546 14.7429 6.26029 13.6502C5.61894 12.564 5.59076 11.1735 5.96758 9.48254L6.69987 6.18983L6.70091 6.18879L6.82279 5.68462C6.85029 5.58081 6.88064 5.47939 6.91029 5.37941L5.89362 5.73254ZM12.502 3.30129C11.2996 3.00215 10.4252 2.99991 9.77591 3.23566C9.15017 3.46298 8.65212 3.94216 8.25821 4.7992L8.25716 4.80233C8.10582 5.12607 7.97312 5.51119 7.85508 5.9565L7.74154 6.42108L7.00925 9.71379C6.654 11.3076 6.74274 12.3697 7.17904 13.1086C7.55761 13.7494 8.25817 14.2481 9.43216 14.6138L9.9655 14.7627L11.2207 15.0773H11.2228L11.5238 15.1482C11.7199 15.1905 11.9069 15.2237 12.0853 15.2471L12.3467 15.2752L12.3551 15.2763L12.7395 15.3013C13.5996 15.326 14.2144 15.1098 14.6832 14.6877C15.2412 14.1853 15.6756 13.3189 15.9801 11.943V11.9419L16.7124 8.6565L16.8249 8.08358C17.0405 6.80161 16.9264 5.90689 16.5447 5.25962C16.1665 4.61848 15.4655 4.1187 14.2863 3.75545L13.7509 3.60858L12.503 3.30129H12.502ZM12.0665 10.3794C12.351 10.4558 12.5198 10.7481 12.4436 11.0325C12.3673 11.3169 12.0748 11.4857 11.7905 11.4096L12.0665 10.3794ZM9.89987 9.79816L12.0665 10.3794L11.928 10.894L11.7905 11.4096L9.62279 10.8284L9.52279 10.7898C9.30066 10.6789 9.17989 10.4233 9.24675 10.1742C9.31376 9.9254 9.546 9.76528 9.79362 9.78046L9.89987 9.79816ZM10.6311 6.7565L14.2551 7.72316C14.5394 7.79919 14.7079 8.09084 14.6322 8.37525C14.5563 8.6598 14.2646 8.82919 13.9801 8.75337L10.3561 7.7867L10.2551 7.74816C10.0332 7.63741 9.91159 7.38252 9.978 7.13358C10.0446 6.88463 10.2772 6.72401 10.5249 6.73879L10.6311 6.7565Z" fill="#383C4D"/>
</svg>
