<svg width="20" height="20" viewBox="0 0 20 20" fill="none" xmlns="http://www.w3.org/2000/svg">
<rect width="20" height="20" fill="white"/>
<path d="M9.18333 16.25H6.25C5.73333 16.25 5.275 16.2333 4.86666 16.175C2.67499 15.9333 2.08333 14.9 2.08333 12.0833V7.91667C2.08333 5.1 2.67499 4.06667 4.86666 3.825C5.275 3.76667 5.73333 3.75 6.25 3.75H9.13333" stroke="#292D32" stroke-linecap="round" stroke-linejoin="round"/>
<path d="M12.5167 3.75H13.75C14.2667 3.75 14.725 3.76667 15.1333 3.825C17.325 4.06667 17.9167 5.1 17.9167 7.91667V12.0833C17.9167 14.9 17.325 15.9333 15.1333 16.175C14.725 16.2333 14.2667 16.25 13.75 16.25H12.5167" stroke="#292D32" stroke-linecap="round" stroke-linejoin="round"/>
<path d="M12.5 1.66666V18.3333" stroke="#292D32" stroke-linecap="round" stroke-linejoin="round"/>
<path d="M9.2454 9.99999H9.25289" stroke="#292D32" stroke-linecap="round" stroke-linejoin="round"/>
<path d="M5.91207 9.99999H5.91956" stroke="#292D32" stroke-linecap="round" stroke-linejoin="round"/>
</svg>
