<svg width="20" height="20" viewBox="0 0 20 20" fill="none" xmlns="http://www.w3.org/2000/svg">
<rect width="20" height="20" fill="white"/>
<path d="M16.9333 10C16.9333 6.18789 13.8121 3.06667 10 3.06667C6.18789 3.06667 3.06667 6.18789 3.06667 10C3.06667 13.8121 6.18789 16.9333 10 16.9333C13.8121 16.9333 16.9333 13.8121 16.9333 10ZM10.0031 12.451L10.1104 12.4615C10.3534 12.5112 10.5365 12.7267 10.5365 12.9844C10.5363 13.2419 10.3532 13.4565 10.1104 13.5063L10.0031 13.5177H9.99583C9.70153 13.5176 9.46272 13.2787 9.4625 12.9844C9.4625 12.6899 9.70139 12.4512 9.99583 12.451H10.0031ZM9.46667 10.749V7.01563C9.46688 6.72126 9.70558 6.48229 10 6.48229C10.2944 6.48229 10.5331 6.72126 10.5333 7.01563V10.749C10.5333 11.0435 10.2946 11.2823 10 11.2823C9.70545 11.2823 9.46667 11.0435 9.46667 10.749ZM18 10C18 14.4012 14.4012 18 10 18C5.59878 18 2 14.4012 2 10C2 5.59878 5.59878 2 10 2C14.4012 2 18 5.59878 18 10Z" fill="#383C4D"/>
</svg>
