<svg width="20" height="20" viewBox="0 0 20 20" fill="none" xmlns="http://www.w3.org/2000/svg">
<rect width="20" height="20" fill="white"/>
<path d="M17.8313 15.8331C17.8313 15.6284 17.7774 15.4274 17.6751 15.2501L17.6741 15.2482L11.0071 3.58118V3.5802C10.9053 3.40068 10.7576 3.25051 10.5794 3.14661C10.401 3.0427 10.1978 2.9884 9.99146 2.9884C9.7853 2.98843 9.58271 3.04289 9.40455 3.14661C9.22623 3.25051 9.07857 3.40065 8.97681 3.5802L8.97583 3.58118L2.30884 15.2482L2.30787 15.2501C2.20506 15.4282 2.15116 15.6304 2.15162 15.8361C2.15209 16.0417 2.20719 16.2434 2.3108 16.421C2.4144 16.5986 2.56272 16.7461 2.74146 16.8478C2.92016 16.9494 3.12284 17.0019 3.32837 17.0001H16.6663L16.8186 16.9894C16.9698 16.9693 17.1164 16.9197 17.2493 16.8429L17.3762 16.7579C17.497 16.665 17.5994 16.549 17.676 16.4161C17.7782 16.2389 17.8313 16.0377 17.8313 15.8331ZM10.0081 13.6671C10.2842 13.6671 10.5081 13.891 10.5081 14.1671C10.5078 14.4431 10.2841 14.6671 10.0081 14.6671H10.0002C9.72426 14.6671 9.50049 14.4431 9.50025 14.1671C9.50025 13.891 9.72411 13.6671 10.0002 13.6671H10.0081ZM9.50025 10.8331V7.50012C9.50025 7.22398 9.72411 7.00012 10.0002 7.00012C10.2763 7.00025 10.5002 7.22406 10.5002 7.50012V10.8331C10.5002 11.1092 10.2763 11.333 10.0002 11.3331C9.72411 11.3331 9.50025 11.1093 9.50025 10.8331ZM18.8313 15.8331C18.8313 16.2131 18.7321 16.5869 18.5422 16.9161C18.3523 17.2454 18.0783 17.5188 17.7493 17.7091C17.4203 17.8993 17.0472 17.9997 16.6672 18.0001H3.33326V17.9991C2.95283 18.0018 2.5781 17.9049 2.24732 17.7169C1.91535 17.5282 1.63896 17.2548 1.44654 16.9249C1.25415 16.595 1.15246 16.2199 1.15162 15.838C1.1508 15.4562 1.25076 15.0808 1.44166 14.7501L8.10767 3.08508C8.29657 2.75249 8.57017 2.47594 8.90064 2.28333C9.23175 2.09039 9.60824 1.98843 9.99146 1.9884C10.3747 1.9884 10.7511 2.09036 11.0823 2.28333C11.4128 2.47593 11.6863 2.75248 11.8752 3.08508L18.5413 14.7501L18.6086 14.8751C18.7552 15.1724 18.8312 15.5005 18.8313 15.8331Z" fill="#383C4D"/>
<path d="M17.8313 15.833C17.8313 15.6283 17.7774 15.4273 17.6751 15.25L17.6741 15.248L11.0071 3.58105V3.58008C10.9053 3.40056 10.7576 3.25038 10.5794 3.14648C10.401 3.04258 10.1978 2.98828 9.99146 2.98828C9.7853 2.98831 9.58271 3.04277 9.40455 3.14648C9.22623 3.25039 9.07857 3.40053 8.97681 3.58008L8.97583 3.58105L2.30884 15.248L2.30787 15.25C2.20506 15.4281 2.15116 15.6303 2.15162 15.8359C2.15209 16.0416 2.20719 16.2433 2.3108 16.4209C2.4144 16.5985 2.56272 16.746 2.74146 16.8477C2.92016 16.9492 3.12284 17.0018 3.32837 17H16.6663L16.8186 16.9893C16.9698 16.9692 17.1164 16.9196 17.2493 16.8428L17.3762 16.7578C17.497 16.6649 17.5994 16.5489 17.676 16.416C17.7782 16.2388 17.8313 16.0376 17.8313 15.833ZM10.0081 13.667C10.2842 13.667 10.5081 13.8909 10.5081 14.167C10.5078 14.4429 10.2841 14.667 10.0081 14.667H10.0002C9.72426 14.667 9.50049 14.4429 9.50025 14.167C9.50025 13.8909 9.72411 13.667 10.0002 13.667H10.0081ZM9.50025 10.833V7.5C9.50025 7.22386 9.72411 7 10.0002 7C10.2763 7.00013 10.5002 7.22394 10.5002 7.5V10.833C10.5002 11.1091 10.2763 11.3329 10.0002 11.333C9.72411 11.333 9.50025 11.1091 9.50025 10.833ZM18.8313 15.833C18.8313 16.213 18.7321 16.5868 18.5422 16.916C18.3523 17.2453 18.0783 17.5187 17.7493 17.709C17.4203 17.8991 17.0472 17.9996 16.6672 18H3.33326V17.999C2.95283 18.0017 2.5781 17.9048 2.24732 17.7168C1.91535 17.528 1.63896 17.2547 1.44654 16.9248C1.25415 16.5949 1.15246 16.2198 1.15162 15.8379C1.1508 15.4561 1.25076 15.0807 1.44166 14.75L8.10767 3.08496C8.29657 2.75237 8.57017 2.47582 8.90064 2.2832C9.23175 2.09027 9.60824 1.98831 9.99146 1.98828C10.3747 1.98828 10.7511 2.09024 11.0823 2.2832C11.4128 2.4758 11.6863 2.75235 11.8752 3.08496L18.5413 14.75L18.6086 14.875C18.7552 15.1723 18.8312 15.5003 18.8313 15.833Z" fill="#383C4D"/>
</svg>
