<svg width="20" height="20" viewBox="0 0 20 20" fill="none" xmlns="http://www.w3.org/2000/svg">
<rect width="20" height="20" fill="white"/>
<path d="M11.333 14.167C11.333 13.1545 10.5125 12.333 9.5 12.333C8.48748 12.333 7.66699 13.1545 7.66699 14.167C7.66717 15.1794 8.48759 16 9.5 16C10.5124 16 11.3328 15.1794 11.333 14.167ZM6.66699 4.83301C6.66682 3.82064 5.84542 3 4.83301 3C3.82074 3.00018 3.00018 3.82074 3 4.83301C3 5.84542 3.82064 6.66682 4.83301 6.66699C5.84553 6.66699 6.66699 5.84553 6.66699 4.83301ZM16 4.83301C15.9998 3.82074 15.1793 3.00018 14.167 3C13.1546 3 12.3332 3.82064 12.333 4.83301C12.333 5.84553 13.1545 6.66699 14.167 6.66699C15.1794 6.66682 16 5.84542 16 4.83301ZM17 4.83301C17 6.22694 15.993 7.38365 14.667 7.62012V7.94434C14.667 8.48943 14.4498 9.01199 14.0645 9.39746C13.679 9.7829 13.1564 9.99994 12.6113 10H10V11.3789C11.3262 11.6152 12.333 12.7729 12.333 14.167C12.3328 15.7316 11.0647 17 9.5 17C7.9353 17 6.66717 15.7316 6.66699 14.167C6.66699 12.7729 7.6738 11.6152 9 11.3789V10H6.38867C5.84358 9.99994 5.32099 9.7829 4.93555 9.39746C4.55016 9.01199 4.33301 8.48943 4.33301 7.94434V7.62012C3.00704 7.38365 2 6.22694 2 4.83301C2.00018 3.26846 3.26846 2.00018 4.83301 2C6.39771 2 7.66682 3.26835 7.66699 4.83301C7.66699 6.22716 6.65928 7.38391 5.33301 7.62012V7.94434C5.33301 8.22421 5.44472 8.49249 5.64258 8.69043C5.84048 8.88833 6.1088 8.99994 6.38867 9H12.6113C12.8912 8.99994 13.1595 8.88833 13.3574 8.69043C13.5553 8.49249 13.667 8.22421 13.667 7.94434V7.62012C12.3407 7.38391 11.333 6.22716 11.333 4.83301C11.3332 3.26835 12.6023 2 14.167 2C15.7315 2.00018 16.9998 3.26846 17 4.83301Z" fill="#383C4D"/>
</svg>
