<svg width="20" height="20" viewBox="0 0 20 20" fill="none" xmlns="http://www.w3.org/2000/svg">
<rect width="20" height="20" fill="white"/>
<path d="M8.45918 17.999H3.67172C3.35824 17.999 3.05461 17.9148 2.7938 17.7556C2.54908 17.6061 2.34656 17.394 2.20779 17.1422C2.06918 16.8905 1.99948 16.6079 2.0062 16.325C2.01339 16.0235 2.10793 15.7281 2.27967 15.4705L6.09639 9.73747C6.24829 9.50981 6.26126 9.23336 6.1314 8.99756C6.07108 8.88803 5.88949 8.63336 5.50648 8.63336H2.46954C2.2106 8.63336 2.00073 8.42733 2.00073 8.17313C2.00073 7.91892 2.2106 7.71289 2.46954 7.71289H5.50648C6.12218 7.71289 6.66412 8.02953 6.95619 8.55988C7.2481 9.09007 7.21919 9.7344 6.88102 10.2414L3.0643 15.9744C2.91553 16.1975 2.90381 16.4703 3.03273 16.7045C3.16166 16.9388 3.40059 17.0786 3.67172 17.0786H8.45918C8.67171 17.0786 8.86751 16.9739 8.98315 16.7989L9.99687 15.2617L9.01253 14.9085C8.50138 14.7646 8.10195 14.4027 7.91459 13.9129C7.72503 13.4172 7.78676 12.8798 8.08382 12.4381L9.97406 9.58498C10.1152 9.37189 10.4057 9.31145 10.6227 9.45013C10.8398 9.58866 10.9014 9.87385 10.7601 10.0869L8.86892 12.9416C8.86814 12.9427 8.86751 12.9438 8.86673 12.9449C8.73656 13.1379 8.70953 13.3727 8.79235 13.5893C8.87517 13.806 9.05316 13.9654 9.28053 14.0264C9.29304 14.0298 9.30538 14.0336 9.31757 14.0381L10.5196 14.4693L13.5201 9.91927C13.8527 9.415 14.4359 9.1522 15.0419 9.23336C15.648 9.31451 16.1383 9.7209 16.3212 10.2941L17.9232 15.3123C18.0165 15.6047 18.0258 15.9129 17.95 16.2038C17.8789 16.4769 17.7347 16.7295 17.5333 16.9348C17.3317 17.1401 17.0796 17.2906 16.8043 17.3703C16.511 17.4553 16.1969 17.4575 15.8959 17.3765C15.8834 17.3731 15.871 17.3693 15.8588 17.3648L10.9003 15.5859L9.77044 17.2992C9.48134 17.7375 8.99128 17.9992 8.4595 17.9992H8.45918V17.999ZM16.16 16.4928C16.415 16.5554 16.6749 16.4824 16.8582 16.2957C17.0456 16.105 17.1092 15.8402 17.0285 15.5874L15.4266 10.5691C15.3524 10.3365 15.1613 10.1782 14.9153 10.1452C14.6693 10.1124 14.442 10.2147 14.3071 10.4194L11.4227 14.7932L16.16 16.4927V16.4928Z" fill="#226DB4"/>
<path d="M8.69971 5.64773C10.3875 5.27487 10.8909 4.7714 11.2638 3.0835C11.2829 2.99701 11.3601 2.93555 11.4486 2.93555C11.5372 2.93555 11.6144 2.99701 11.6335 3.0835C12.0064 4.7714 12.5098 5.27487 14.1976 5.64773C14.2841 5.66681 14.3455 5.74408 14.3455 5.8326C14.3455 5.92112 14.2841 5.99839 14.1976 6.01747C12.5098 6.39033 12.0064 6.89379 11.6335 8.58169C11.6144 8.66818 11.5372 8.72965 11.4486 8.72965C11.3601 8.72965 11.2829 8.66818 11.2638 8.58169C10.8909 6.89379 10.3875 6.39033 8.69971 6.01747C8.61322 5.99839 8.55176 5.92112 8.55176 5.8326C8.55176 5.74408 8.61322 5.66681 8.69971 5.64773Z" fill="#089949"/>
<path d="M12.4943 3.4009C13.366 3.20837 13.6261 2.94827 13.8186 2.07648C13.8285 2.03175 13.8683 2 13.9142 2C13.96 2 13.9999 2.03175 14.0097 2.07648C14.2022 2.94827 14.4623 3.20837 15.3341 3.4009C15.3788 3.41075 15.4105 3.45064 15.4105 3.49646C15.4105 3.54229 15.3788 3.58217 15.3341 3.59203C14.4623 3.78456 14.2022 4.04466 14.0097 4.91645C13.9999 4.96118 13.96 4.99293 13.9142 4.99293C13.8683 4.99293 13.8285 4.96118 13.8186 4.91645C13.6261 4.04466 13.366 3.78456 12.4943 3.59203C12.4495 3.58217 12.4178 3.54229 12.4178 3.49646C12.4178 3.45064 12.4495 3.41075 12.4943 3.4009Z" fill="#E42527"/>
</svg>
