<svg width="20" height="20" viewBox="0 0 20 20" fill="none" xmlns="http://www.w3.org/2000/svg">
<rect width="20" height="20" fill="white"/>
<path d="M2 15.8073V13.3188C2 13.0242 2.23878 12.7854 2.53333 12.7854C2.82789 12.7854 3.06667 13.0242 3.06667 13.3188V15.8073C3.06667 16.1059 3.18572 16.392 3.39688 16.6031C3.60803 16.8143 3.89409 16.9333 4.19271 16.9333H6.68125L6.78854 16.9438C7.03182 16.9933 7.21458 17.2088 7.21458 17.4667C7.21458 17.7246 7.03182 17.94 6.78854 17.9896L6.68125 18H4.19271C3.6112 18 3.0539 17.7685 2.64271 17.3573C2.23152 16.9461 2 16.3888 2 15.8073ZM16.9333 15.8073V13.3188C16.9333 13.0242 17.1721 12.7854 17.4667 12.7854C17.7612 12.7854 18 13.0242 18 13.3188V15.8073C18 16.3888 17.7685 16.9461 17.3573 17.3573C16.9461 17.7685 16.3888 18 15.8073 18H13.3188C13.0242 18 12.7854 17.7612 12.7854 17.4667C12.7854 17.1721 13.0242 16.9333 13.3188 16.9333H15.8073C16.1059 16.9333 16.392 16.8143 16.6031 16.6031C16.8143 16.392 16.9333 16.1059 16.9333 15.8073ZM2 6.68125V4.19271C2 3.6112 2.23152 3.0539 2.64271 2.64271C3.0539 2.23152 3.6112 2 4.19271 2H6.68125C6.9758 2 7.21458 2.23878 7.21458 2.53333C7.21458 2.82789 6.9758 3.06667 6.68125 3.06667H4.19271C3.89409 3.06667 3.60803 3.18572 3.39688 3.39688C3.18572 3.60803 3.06667 3.89409 3.06667 4.19271V6.68125C3.06667 6.9758 2.82789 7.21458 2.53333 7.21458C2.23878 7.21458 2 6.9758 2 6.68125ZM16.9333 6.68125V4.19271C16.9333 3.89409 16.8143 3.60803 16.6031 3.39688C16.392 3.18572 16.1059 3.06667 15.8073 3.06667H13.3188C13.0242 3.06667 12.7854 2.82789 12.7854 2.53333C12.7854 2.23878 13.0242 2 13.3188 2H15.8073C16.3888 2 16.9461 2.23152 17.3573 2.64271C17.7685 3.0539 18 3.6112 18 4.19271V6.68125C18 6.9758 17.7612 7.21458 17.4667 7.21458C17.1721 7.21458 16.9333 6.9758 16.9333 6.68125Z" fill="#383C4D"/>
</svg>
